<svg xmlns="http://www.w3.org/2000/svg" viewBox="0 0 500 500"><g id="freepik--background-simple--inject-135"><path d="M485.64,265.12c.09-1.08.17-2.15.31-3.22,1.5-11.49,8.48-97.87-100-206.5C269.31-61.36,141.86,69.78,119.85,104.06S91.42,191,74.43,156.34c-10.5-21.42,16.88-48.23-21.91-37-24.88,7.19-71.1,70.78-33.21,180S163.61,492,265.88,485.88c131.52-7.81,209-103.19,202.81-110.28s-55.13,14.06-44.37-.67C434.91,360.42,482.55,305.66,485.64,265.12Z" style="fill:#FFC100"></path><path d="M485.64,265.12c.09-1.08.17-2.15.31-3.22,1.5-11.49,8.48-97.87-100-206.5C269.31-61.36,141.86,69.78,119.85,104.06S91.42,191,74.43,156.34c-10.5-21.42,16.88-48.23-21.91-37-24.88,7.19-71.1,70.78-33.21,180S163.61,492,265.88,485.88c131.52-7.81,209-103.19,202.81-110.28s-55.13,14.06-44.37-.67C434.91,360.42,482.55,305.66,485.64,265.12Z" style="fill:#fff;opacity:0.7000000000000001"></path></g><g id="freepik--Chopsticks--inject-135"><path d="M256.85,238.32S76.54,424.87,76,427.27s4.69,7.85,6.85,6.07S260.37,242.26,260.22,240.71,259.86,237.23,256.85,238.32Z" style="fill:#263238;stroke:#263238;stroke-miterlimit:10"></path><path d="M239.71,250.46s-192.5,174-193.2,176.3,4.15,8.16,6.43,6.53,190-178.66,190-180.21S242.79,249.58,239.71,250.46Z" style="fill:#263238;stroke:#263238;stroke-miterlimit:10"></path></g><g id="freepik--food-3--inject-135"><path d="M394.9,8.67S321.3,58.41,304.76,69s-47.64,29.78-47.64,29.78S303,165.66,305.6,170.29s26.85,37.25,26.85,37.25L471.6,107.28Z" style="fill:#fff;stroke:#263238;stroke-miterlimit:10"></path><path d="M433.38,272,385.5,195.48c5.18-6,8.11-20.26,2.84-32.94-6.18-14.87-60.79-99.24-71.73-109.67-8.74-8.35-18.45-8.84-27.22-4.14,0,0-7.08,3-11.49,15.86s15,39,21,48.54,37.69,55.25,47.16,70.4c8,12.79,25.49,15.67,33.34,15l48.24,77.12a3.39,3.39,0,0,0,5.75-3.6Z" style="fill:#263238;stroke:#263238;stroke-miterlimit:10"></path><path d="M483.24,241.89l-47.88-76.54c5.18-6,8.1-20.26,2.84-32.94C432,117.54,377.41,33.17,366.47,22.73c-8.75-8.34-18.45-8.83-27.22-4.13,0,0-7.08,2.95-11.49,15.86s15,39,21,48.53,37.68,55.26,47.16,70.41c8,12.79,25.48,15.67,33.34,15l48.23,77.11a3.4,3.4,0,0,0,5.76-3.6Z" style="fill:#263238;stroke:#263238;stroke-miterlimit:10"></path><path d="M290.49,43.8s-7.08,3-11.49,15.86,15,39,21,48.53,37.68,55.26,47.16,70.41,32.26,16.4,36.59,14.28c6.79-3.33,11.87-20.4,5.7-35.27S328.65,58.37,317.71,47.94C309,39.59,299.26,39.1,290.49,43.8Z" style="fill:#FFC100;stroke:#263238;stroke-miterlimit:10"></path><circle cx="286.02" cy="67.35" r="2.12" style="fill:none;stroke:#263238;stroke-miterlimit:10"></circle><path d="M302.25,75.7a1.27,1.27,0,1,1-1.75-.4A1.26,1.26,0,0,1,302.25,75.7Z" style="fill:none;stroke:#263238;stroke-miterlimit:10"></path><path d="M293.94,86.4a1.7,1.7,0,1,1-2.34-.54A1.7,1.7,0,0,1,293.94,86.4Z" style="fill:none;stroke:#263238;stroke-miterlimit:10"></path><circle cx="301.51" cy="90.92" r="1.06" style="fill:none;stroke:#263238;stroke-miterlimit:10"></circle><path d="M294.27,58.94a2.33,2.33,0,1,1-3.22-.74A2.33,2.33,0,0,1,294.27,58.94Z" style="fill:none;stroke:#263238;stroke-miterlimit:10"></path><path d="M309.26,69.31a1.7,1.7,0,1,1-2.34-.53A1.69,1.69,0,0,1,309.26,69.31Z" style="fill:none;stroke:#263238;stroke-miterlimit:10"></path><path d="M319,97.72a2.55,2.55,0,1,1-3.51-.81A2.56,2.56,0,0,1,319,97.72Z" style="fill:none;stroke:#263238;stroke-miterlimit:10"></path><path d="M317.07,84.19a1.48,1.48,0,1,1-2.05-.47A1.49,1.49,0,0,1,317.07,84.19Z" style="fill:none;stroke:#263238;stroke-miterlimit:10"></path><path d="M320.12,76.28a.62.62,0,0,1-.2.87A.63.63,0,0,1,319,77a.62.62,0,0,1,.2-.87A.63.63,0,0,1,320.12,76.28Z" style="fill:none;stroke:#263238;stroke-miterlimit:10"></path><path d="M307.14,101.9a2.76,2.76,0,1,1-3.8-.87A2.75,2.75,0,0,1,307.14,101.9Z" style="fill:none;stroke:#263238;stroke-miterlimit:10"></path><path d="M333.93,107.15a1.49,1.49,0,1,1-2.05-.47A1.5,1.5,0,0,1,333.93,107.15Z" style="fill:none;stroke:#263238;stroke-miterlimit:10"></path><path d="M332.1,93a1.69,1.69,0,1,1-2.33-.54A1.7,1.7,0,0,1,332.1,93Z" style="fill:none;stroke:#263238;stroke-miterlimit:10"></path><path d="M324,118.4a1.48,1.48,0,1,1-2-.48A1.48,1.48,0,0,1,324,118.4Z" style="fill:none;stroke:#263238;stroke-miterlimit:10"></path><path d="M318.45,113.59a1.7,1.7,0,1,1-2.34-.54A1.69,1.69,0,0,1,318.45,113.59Z" style="fill:none;stroke:#263238;stroke-miterlimit:10"></path><path d="M347.27,138.08a1.7,1.7,0,0,1-2.88,1.79,1.7,1.7,0,0,1,2.88-1.79Z" style="fill:none;stroke:#263238;stroke-miterlimit:10"></path><path d="M358.5,124.05a1.69,1.69,0,1,1-2.34-.54A1.68,1.68,0,0,1,358.5,124.05Z" style="fill:none;stroke:#263238;stroke-miterlimit:10"></path><path d="M357.84,163a2.12,2.12,0,1,1-2.92-.67A2.13,2.13,0,0,1,357.84,163Z" style="fill:none;stroke:#263238;stroke-miterlimit:10"></path><path d="M360.68,178.71a1.7,1.7,0,0,1-2.88,1.79,1.7,1.7,0,0,1,2.88-1.79Z" style="fill:none;stroke:#263238;stroke-miterlimit:10"></path><path d="M380.32,162.92a1.27,1.27,0,1,1-1.76-.4A1.27,1.27,0,0,1,380.32,162.92Z" style="fill:none;stroke:#263238;stroke-miterlimit:10"></path><path d="M337,141.72a1.48,1.48,0,1,1-2-.47A1.48,1.48,0,0,1,337,141.72Z" style="fill:none;stroke:#263238;stroke-miterlimit:10"></path><path d="M377.67,189.08l51.05,81.61a3.39,3.39,0,0,0,4.68,1.08h0a3.39,3.39,0,0,0,1.08-4.67l-50.15-80.18S379,184.77,377.67,189.08Z" style="fill:#fff;stroke:#263238;stroke-miterlimit:10"></path><path d="M340.82,12.32s-7.08,2.95-11.49,15.86,15,39,21,48.53S388,132,397.48,147.12s32.26,16.39,36.59,14.27c6.79-3.33,11.88-20.39,5.7-35.26S379,26.89,368,16.45C359.29,8.11,349.59,7.62,340.82,12.32Z" style="fill:#FFC100;stroke:#263238;stroke-miterlimit:10"></path><path d="M338.15,34.74a2.12,2.12,0,1,1-2.92-.68A2.12,2.12,0,0,1,338.15,34.74Z" style="fill:none;stroke:#263238;stroke-miterlimit:10"></path><path d="M340.22,44.45a1.27,1.27,0,1,1-1.75-.41A1.27,1.27,0,0,1,340.22,44.45Z" style="fill:none;stroke:#263238;stroke-miterlimit:10"></path><path d="M344.27,54.92a1.69,1.69,0,1,1-2.34-.54A1.69,1.69,0,0,1,344.27,54.92Z" style="fill:none;stroke:#263238;stroke-miterlimit:10"></path><path d="M352.75,58.87a1.06,1.06,0,1,1-1.46-.34A1.06,1.06,0,0,1,352.75,58.87Z" style="fill:none;stroke:#263238;stroke-miterlimit:10"></path><path d="M358,73.32a2.33,2.33,0,1,1-3.21-.74A2.31,2.31,0,0,1,358,73.32Z" style="fill:none;stroke:#263238;stroke-miterlimit:10"></path><path d="M359.59,37.83a1.69,1.69,0,1,1-2.33-.54A1.7,1.7,0,0,1,359.59,37.83Z" style="fill:none;stroke:#263238;stroke-miterlimit:10"></path><path d="M341.61,25.07a2.54,2.54,0,1,1-3.51-.81A2.56,2.56,0,0,1,341.61,25.07Z" style="fill:none;stroke:#263238;stroke-miterlimit:10"></path><path d="M352.45,46.8a1.49,1.49,0,1,1-2.05-.47A1.49,1.49,0,0,1,352.45,46.8Z" style="fill:none;stroke:#263238;stroke-miterlimit:10"></path><path d="M370.45,44.79a.64.64,0,1,1-1.08.68.64.64,0,0,1,1.08-.68Z" style="fill:none;stroke:#263238;stroke-miterlimit:10"></path><path d="M422.58,139.73a2.76,2.76,0,1,1-3.79-.87A2.76,2.76,0,0,1,422.58,139.73Z" style="fill:none;stroke:#263238;stroke-miterlimit:10"></path><path d="M365.49,65.65a1.48,1.48,0,1,1-2-.47A1.48,1.48,0,0,1,365.49,65.65Z" style="fill:none;stroke:#263238;stroke-miterlimit:10"></path><path d="M375.65,64.3a1.7,1.7,0,1,1-2.88,1.8,1.7,1.7,0,0,1,2.88-1.8Z" style="fill:none;stroke:#263238;stroke-miterlimit:10"></path><path d="M381.3,82.53a1.48,1.48,0,1,1-2.05-.47A1.49,1.49,0,0,1,381.3,82.53Z" style="fill:none;stroke:#263238;stroke-miterlimit:10"></path><path d="M368.78,82.1a1.7,1.7,0,1,1-2.34-.53A1.69,1.69,0,0,1,368.78,82.1Z" style="fill:none;stroke:#263238;stroke-miterlimit:10"></path><path d="M397.6,106.59a1.69,1.69,0,1,1-2.34-.54A1.69,1.69,0,0,1,397.6,106.59Z" style="fill:none;stroke:#263238;stroke-miterlimit:10"></path><path d="M389.06,92.93a1.7,1.7,0,1,1-2.88,1.8,1.7,1.7,0,1,1,2.88-1.8Z" style="fill:none;stroke:#263238;stroke-miterlimit:10"></path><path d="M379.62,97.83a1.7,1.7,0,1,1-2.34-.54A1.7,1.7,0,0,1,379.62,97.83Z" style="fill:none;stroke:#263238;stroke-miterlimit:10"></path><path d="M416.89,111a2.12,2.12,0,1,1-2.92-.67A2.12,2.12,0,0,1,416.89,111Z" style="fill:none;stroke:#263238;stroke-miterlimit:10"></path><path d="M392.3,122.91a2.12,2.12,0,1,1-2.92-.67A2.11,2.11,0,0,1,392.3,122.91Z" style="fill:none;stroke:#263238;stroke-miterlimit:10"></path><path d="M411,147.22a1.69,1.69,0,1,1-2.34-.54A1.69,1.69,0,0,1,411,147.22Z" style="fill:none;stroke:#263238;stroke-miterlimit:10"></path><path d="M404.22,130a1.27,1.27,0,1,1-1.75-.4A1.28,1.28,0,0,1,404.22,130Z" style="fill:none;stroke:#263238;stroke-miterlimit:10"></path><path d="M387.38,110.24a1.48,1.48,0,1,1-2.05-.47A1.49,1.49,0,0,1,387.38,110.24Z" style="fill:none;stroke:#263238;stroke-miterlimit:10"></path><path d="M428,157.6l51.05,81.61a3.39,3.39,0,0,0,4.67,1.08h0a3.4,3.4,0,0,0,1.08-4.68l-50.15-80.17S429.31,153.28,428,157.6Z" style="fill:#fff;stroke:#263238;stroke-miterlimit:10"></path></g><g id="freepik--food-2--inject-135"><circle cx="358.04" cy="372.11" r="119.28" style="fill:#263238;stroke:#263238;stroke-miterlimit:10"></circle><circle cx="364.9" cy="351.53" r="119.28" style="fill:#fff;stroke:#263238;stroke-miterlimit:10"></circle><circle cx="364.9" cy="351.53" r="116.77" style="fill:#fff;stroke:#263238;stroke-miterlimit:10"></circle><path d="M358.49,451s14.95,2.31,36.71-2.78,32.87-12,32.87-12,34.25-47.22,35.64-56.47a116,116,0,0,1,2.32-12.5,29.72,29.72,0,0,0,9.26-18.52c1.38-12,0-19.44,0-19.44s-30.6-37.77-38.45-45.51-6.46-4.49-10.16-9.12-7.41-6.94-11.57-9.25S375.76,253.77,354,254.24s-33.33,6-39.35,10.18l-6,4.17s-30.49,19.84-35.39,34-4.43,32.2-5.81,41,.92,37.49,7.4,49.07,21.3,34.25,43.05,46.75S358.49,451,358.49,451Z" style="opacity:0.31"></path><path d="M272.42,337s-5.31,12.85-6.71,17.32.28,7.83.28,8.67-3.91,3.07-3.08,8.38,16.21,26.27,22.64,31.58A50,50,0,0,1,299,420.8c2.23,5.31,8.38,11.18,14.25,13.13s12.86,0,12.86,0,41.64,11.18,48.62,14.82,9.23.28,10.9-3.64,5-17.32,5-17.32-2.23,10.9,3.92,12,20.68-7,23.47-10.62,42.2-60.92,43.88-67.07.56-8.66-1.4-9.78-23.19-52-27.66-59.25-8.67-12.86-12.58-14.81-43.6-20.69-46.11-21.8-23.48-9.79-26.83-6.43,1.11,10.06,1.39,11.18-1.11,1.95-2.79,2.51-4.19.28-5.31.28a8.89,8.89,0,0,1-3.08-1.12s-.55-9.78-4.47-11.17-6.71,2.51-9.22,6.14-2.8,5.31-4.75,7.55a39.78,39.78,0,0,0-3.36,4.47s-12.85-2.23-15.65.84-26.27,25.43-26.83,31.86,1.4,7.55,1.4,7.55-3.35,4.19-3.63,8.94S272.42,337,272.42,337Z" style="fill:#d1d1d1;stroke:#263238;stroke-miterlimit:10"></path><path d="M385.32,283.86s-17.88,16.2-21.24,19.56-6.42,6.71-5,8.66,7.27,4.75,12,5.31,25.43-22.08,28.79-27.11,3.63-6.42.84-7.54S392,277.15,385.32,283.86Z" style="fill:#ebebeb;stroke:#263238;stroke-miterlimit:10"></path><path d="M331.39,418.84s33,14.82,35.21,15.37,3.91-12.29,4.75-14.53-28.51-16.21-31.58-16.21S326.91,410.18,331.39,418.84Z" style="fill:#ebebeb;stroke:#263238;stroke-miterlimit:10"></path><path d="M367.72,399.84s-16.49,4.19-17.05,6.43,12.58,15.37,15.93,16.49,29.62-7.27,29.34-11.18-1.39-14.82-5.86-14.82S367.72,399.84,367.72,399.84Z" style="fill:#ebebeb;stroke:#263238;stroke-miterlimit:10"></path><path d="M390.63,325.78s-25.71,28.78-26.27,34.09,8.95,9.78,11.18,9.51,9.23-9.23,10.06-10.62S402.37,335.84,406,332.2s6.14-5.31.56-7.54S396.78,319.63,390.63,325.78Z" style="fill:#ebebeb;stroke:#263238;stroke-miterlimit:10"></path><path d="M387.28,250.6s-9.5-4.47-11.74-1.4.28,10.06,3.64,12.58,34.37,21.24,37.17,21.8,6.15-9.51,4.47-13.7S387.28,250.6,387.28,250.6Z" style="fill:#ebebeb;stroke:#263238;stroke-miterlimit:10"></path><path d="M336.7,376.64s-9.23,2.52-15.38,8.39-21.24,18.44-20.12,23.75,6.71,3.64,10.34,2.24,26.27-19.57,28.79-24S342.84,374.13,336.7,376.64Z" style="fill:#ebebeb;stroke:#263238;stroke-miterlimit:10"></path><path d="M337.53,391.73s13.14.84,15.65,2.8,3.92,2.79-.55,7-24,19.84-27.95,23.19-17.33,1.68-21-1.4-2-5.58-.28-7.26S337.53,391.73,337.53,391.73Z" style="fill:#ebebeb;stroke:#263238;stroke-miterlimit:10"></path><path d="M385.6,358.76s14.82,39.68,17,41.64,12-4.19,13.14-9.23-17.61-43.59-19.29-45S383.37,349,385.6,358.76Z" style="fill:#ebebeb;stroke:#263238;stroke-miterlimit:10"></path><path d="M379.74,387.54S359.61,382,352.91,378s-11.18-1.4-11.74,2.51,1.39,10.07,7.26,13.42,21.8,6.43,31,8.94,9.22-5.87,7-10.62A7.86,7.86,0,0,0,379.74,387.54Z" style="fill:#ebebeb;stroke:#263238;stroke-miterlimit:10"></path><path d="M309.59,339.47s41.92-9.78,46.11-11.18,6.43-6.43,5.59-9.5-3.07-4.47-6.15-4.47-35.77,7.54-40,8.94a15.19,15.19,0,0,0-8.95,8.67C304.56,335.84,303.72,340,309.59,339.47Z" style="fill:#ebebeb;stroke:#263238;stroke-miterlimit:10"></path><path d="M314.06,326.89s-2.24,6.43-6.43,10.07" style="fill:#ebebeb;stroke:#263238;stroke-miterlimit:10"></path><path d="M328.87,276.87s-20.12,10.62-25.71,14-9.78,5.59-7.27,9.5,12,8.11,14.26,7.27,29.62-19,32.69-23.2,2.8-5.86-1.95-7.26S332.22,274.63,328.87,276.87Z" style="fill:#ebebeb;stroke:#263238;stroke-miterlimit:10"></path><path d="M334.46,285.25s-7.27-.84-6.15,2.52,9.22,12.29,15.09,12.57,30.19-6.7,34.66-12.29-4.75-10.9-9.5-10.9S334.46,285.25,334.46,285.25Z" style="fill:#ebebeb;stroke:#263238;stroke-miterlimit:10"></path><path d="M331.39,288.33s12,5.87,12,8.94-3.63,0-5.31-1.12" style="fill:#ebebeb;stroke:#263238;stroke-miterlimit:10"></path><path d="M395.94,411.58l-2.3.7c-5.45,1.66-19,5.85-22.29,7.4-4.19,2-3.63,4.19-2,7.83s4.48,5,8.67,5,18.44-4.19,24.31-7.83,9.51-8.94,7.27-11.46S399,409.06,395.94,411.58Z" style="fill:#ebebeb;stroke:#263238;stroke-miterlimit:10"></path><path d="M366.6,434.21s10.06,2.52,8.1,7.83-9.78,11.18-16.21,8.94-39.4-13.69-41.36-16.77,9.22-15.65,11.74-16.48S366.6,434.21,366.6,434.21Z" style="fill:#ebebeb;stroke:#263238;stroke-miterlimit:10"></path><path d="M324.12,372.17s-8.94,6.15-12.86,7-40.8-22.92-41.92-26.55,9.22-7.83,13.14-7.83S321.6,366,323.56,367.7,326.08,369.93,324.12,372.17Z" style="fill:#ebebeb;stroke:#263238;stroke-miterlimit:10"></path><path d="M315.73,347.58s-33.25-23.76-36.89-24.6-6.7,0-6.14,5.31.27,7.83,4.75,11.46,30.74,25.71,33.81,24.87S318.25,353.17,315.73,347.58Z" style="fill:#ebebeb;stroke:#263238;stroke-miterlimit:10"></path><path d="M315.73,347.58s-7.54,20.4-4.47,17" style="fill:#ebebeb;stroke:#263238;stroke-miterlimit:10"></path><path d="M269.62,369.1s25.71,26,30.18,27.94,7,.28,7.83-1.11,3.35-8.11-.28-12" style="fill:#ebebeb;stroke:#263238;stroke-miterlimit:10"></path><path d="M328,370.21s8.11-.28,7.83-3.63S323,342.27,323,342.27" style="fill:#ebebeb;stroke:#263238;stroke-miterlimit:10"></path><path d="M346.48,337.51s10.34,34.1,9.5,36.9" style="fill:#ebebeb;stroke:#263238;stroke-miterlimit:10"></path><line x1="311.26" y1="379.16" x2="321.32" y2="385.03" style="fill:#ebebeb;stroke:#263238;stroke-miterlimit:10"></line><path d="M375.82,317.67s24-6.15,28.51-8.38,6.43.28,6.15,5.31-1.68,7-1.68,7" style="fill:#ebebeb;stroke:#263238;stroke-miterlimit:10"></path><path d="M397.9,298.11s7.27.56,10.9,5,3.35,7.82,3.35,7.82" style="fill:#ebebeb;stroke:#263238;stroke-miterlimit:10"></path><line x1="410.2" y1="288.89" x2="416.07" y2="300.34" style="fill:#ebebeb;stroke:#263238;stroke-miterlimit:10"></line><path d="M352.91,265.69s18.72,5.31,20.4,8.38" style="fill:#ebebeb;stroke:#263238;stroke-miterlimit:10"></path><path d="M349.83,267.37s-9.22,7-10.9,8.38" style="fill:#ebebeb;stroke:#263238;stroke-miterlimit:10"></path><line x1="335.58" y1="265.69" x2="329.71" y2="274.07" style="fill:#ebebeb;stroke:#263238;stroke-miterlimit:10"></line><line x1="314.62" y1="272.4" x2="305.39" y2="286.65" style="fill:#ebebeb;stroke:#263238;stroke-miterlimit:10"></line><line x1="276.89" y1="309.01" x2="295.89" y2="300.34" style="fill:#ebebeb;stroke:#263238;stroke-miterlimit:10"></line><path d="M306,309.85s-.28,1.39-4.47,3.63S283,322.42,283,322.42" style="fill:#ebebeb;stroke:#263238;stroke-miterlimit:10"></path><path d="M309.31,311.24s5.31,6.71,11.73,7.83" style="fill:#ebebeb;stroke:#263238;stroke-miterlimit:10"></path><path d="M381.69,336.12s-19.84,7.54-20.68,7.26-.84-11.45-.56-13.13" style="fill:#ebebeb;stroke:#263238;stroke-miterlimit:10"></path><path d="M416.35,340.31s18.72,15.93,24.31,16.49,9.5-2.24,7.83-7.27-31.3-27.11-31.3-27.11" style="fill:#ebebeb;stroke:#263238;stroke-miterlimit:10"></path><path d="M436.47,359.31S420,382.79,421.1,385.59s8.1,3.63,10.34,3.91,21.8-20.4,22.92-22.64-5.31-6.71-6.15-7.27" style="fill:#ebebeb;stroke:#263238;stroke-miterlimit:10"></path><line x1="401.25" y1="350.37" x2="426.69" y2="368.54" style="fill:#ebebeb;stroke:#263238;stroke-miterlimit:10"></line><path d="M407.4,401s3.64,7,3.08,8.38-2.8,1.68-2.8,1.68" style="fill:#ebebeb;stroke:#263238;stroke-miterlimit:10"></path><path d="M409.92,416.33s13.13-12,15.65-11.18" style="fill:#ebebeb;stroke:#263238;stroke-miterlimit:10"></path><path d="M415.79,391.17s11.46,5.59,15.37,5.31,6.43-5.86,5.59-8.1" style="fill:#ebebeb;stroke:#263238;stroke-miterlimit:10"></path><line x1="316.85" y1="304.82" x2="339.49" y2="301.46" style="fill:#ebebeb;stroke:#263238;stroke-miterlimit:10"></line><line x1="360.17" y1="298.39" x2="364.08" y2="303.42" style="fill:#ebebeb;stroke:#263238;stroke-miterlimit:10"></line><path d="M298.48,432.28s9.33,7.5,13.59,11.56,26.76,8.51,35.48,10.14,11.76-1.53,10.94-3-24.12-13.83-28.38-14.64-25.14-5.48-27.77-5.68S297.67,430.86,298.48,432.28Z" style="fill:#FFC100;stroke:#263238;stroke-miterlimit:10"></path><path d="M334.77,439.38s-5.47-2.64-5.06,0,11.75,9.93,16.42,11.15,6.69,2,8.51,1.22" style="fill:none;stroke:#263238;stroke-miterlimit:10"></path><path d="M369.44,312.06s-4.34,3.32-8.15,6.73-19,28.55-20,31.79-4.05,11.56-2,11.36,28-39.74,29.6-43.39,4.06-8.51,4.06-8.51Z" style="fill:#FFC100;stroke:#263238;stroke-miterlimit:10"></path><path d="M343.69,349.16s3.86-7.9,4.06-5.47-4.26,11.55-7.71,15.41" style="fill:none;stroke:#263238;stroke-miterlimit:10"></path><path d="M272.94,365.38c.32,1,22.91,53.52,24.13,55.14s.81-14-1.83-20.88S280,364,277.4,359.7s-5.68-9.52-5.47-4.66S272.53,364.17,272.94,365.38Z" style="fill:#FFC100;stroke:#263238;stroke-miterlimit:10"></path><path d="M294.84,413.63s-7.71-20.07-8.52-21.69-1.42-8.72-1.42-8.72,4.06,7.71,7.1,13.59,3.44,7.9,3.44,7.9" style="fill:none;stroke:#263238;stroke-miterlimit:10"></path><path d="M357.68,353.22s17.84,41.15,19.26,43.79,13,12,13,12-20.07-46.43-22.51-48.25S359.3,352,357.68,353.22Z" style="fill:#FFC100;stroke:#263238;stroke-miterlimit:10"></path><path d="M376.94,397s-5.27-13.18-2.63-12,8.92,12,11.15,16.42l2.23,4.46" style="fill:none;stroke:#263238;stroke-miterlimit:10"></path><path d="M418.91,345.11S410.6,373.9,409,377.34s2.44,14.19,3.86,14,7.5-11.55,8.11-16,8.1-34.67,7.7-37.1S421.75,341.86,418.91,345.11Z" style="fill:#FFC100;stroke:#263238;stroke-miterlimit:10"></path><path d="M410.19,379.17s4.26-10.54,6.69-16,3.85-.2,2.64,5.68-.41,16.42-7.3,20.47" style="fill:none;stroke:#263238;stroke-miterlimit:10"></path><path d="M294,333.76S304.77,366.4,306,363s5.06-16,3.85-19.06-10.75-26.76-12-27S293,328.89,294,333.76Z" style="fill:#FFC100;stroke:#263238;stroke-miterlimit:10"></path><path d="M301.12,272.73s-5.27,25.75-7.5,29.4-12.37,17-15.21,18.65,8.92-28.18,11.56-33.86S299.7,273.75,301.12,272.73Z" style="fill:#FFC100;stroke:#263238;stroke-miterlimit:10"></path><path d="M333.35,257.93s27,.61,32-.2,19.05-6.08,13.78-6.89-28.58-3.85-33.25-2.23S333.15,255.91,333.35,257.93Z" style="fill:#FFC100;stroke:#263238;stroke-miterlimit:10"></path><path d="M336.4,256.72s8.46-1.8,10.92-6.68" style="fill:none;stroke:#263238;stroke-miterlimit:10"></path><path d="M436.84,283.72s-12.58,4.52-16.78,14.2-1.13,27.6,12.91,44.38,21.95,18.72,32.43,15,15-20.66,13.56-33.89-13.56-34.05-23.88-39.21S439.91,282.43,436.84,283.72Z" style="fill:#fff;stroke:#263238;stroke-miterlimit:10"></path><path d="M438.94,297.28s-5.81,1.29-9.36,9.84-.64,23.72,8.72,34.53,25.81,2.42,27.43-12.58-5.17-26-11.3-30.18S438.94,297.28,438.94,297.28Z" style="fill:#FFC100;stroke:#263238;stroke-miterlimit:10"></path><path d="M440.39,365.21a51.52,51.52,0,0,0-25.17,19c-10.49,14.85-12.1,32.28-7.91,41.8S421.84,441.7,437,437.5s31.31-31.46,33.25-40.34-2.1-18.72-7.1-24.36S454.1,361.89,440.39,365.21Z" style="fill:#fff;stroke:#263238;stroke-miterlimit:10"></path><path d="M435.23,380.38s-10,4.36-14.36,19.69,3.71,27.11,16.13,26.3,21.63-10.17,25.34-24.85S451.53,371.34,435.23,380.38Z" style="fill:#FFC100;stroke:#263238;stroke-miterlimit:10"></path><path d="M338.1,344.56a2.49,2.49,0,0,0-2.72.37c-1.63,1.08-2.18,2.17-.36,2.17S338.83,346.2,338.1,344.56Z" style="fill:#fff"></path><path d="M354.26,353.64a2.48,2.48,0,0,0-2.72.36c-1.64,1.09-2.18,2.18-.37,2.18S355,355.27,354.26,353.64Z" style="fill:#fff"></path><path d="M293.64,339.66a2.52,2.52,0,0,0-2.73.36c-1.63,1.09-2.17,2.18-.36,2.18S294.36,341.3,293.64,339.66Z" style="fill:#fff"></path><path d="M343.55,371.06a2.5,2.5,0,0,0-2.72.36c-1.64,1.09-2.18,2.18-.37,2.18S344.28,372.7,343.55,371.06Z" style="fill:#fff"></path><path d="M396.18,368.52a2.47,2.47,0,0,0-2.72.36c-1.63,1.09-2.18,2.18-.36,2.18S396.91,370.15,396.18,368.52Z" style="fill:#fff"></path><path d="M380.39,324.6a2.47,2.47,0,0,0-2.72.36c-1.63,1.09-2.18,2.18-.36,2.18S381.12,326.23,380.39,324.6Z" style="fill:#fff"></path><path d="M419.78,294.83a2.48,2.48,0,0,0-2.72.36c-1.64,1.09-2.18,2.18-.37,2.18S420.51,296.46,419.78,294.83Z" style="fill:#fff"></path><path d="M339.37,324.05a2.49,2.49,0,0,0-2.72.37c-1.63,1.08-2.18,2.17-.36,2.17S340.1,325.69,339.37,324.05Z" style="fill:#fff"></path><path d="M310.7,315.89a2.49,2.49,0,0,0-2.73.36c-1.63,1.09-2.17,2.18-.36,2.18S311.42,317.52,310.7,315.89Z" style="fill:#fff"></path><path d="M357.52,284.12a2.49,2.49,0,0,0-2.72.37c-1.63,1.08-2.18,2.17-.36,2.17S358.25,285.76,357.52,284.12Z" style="fill:#fff"></path><path d="M372.61,326.47a2.49,2.49,0,0,0,.45,2.71c1.13,1.6,2.24,2.12,2.18.3S374.22,325.7,372.61,326.47Z" style="fill:#fff"></path><path d="M392.19,265.25a2.48,2.48,0,0,0-2.72.36c-1.63,1.09-2.18,2.18-.36,2.18S392.92,266.88,392.19,265.25Z" style="fill:#fff"></path><path d="M384.41,267.12a2.5,2.5,0,0,0,.44,2.71c1.14,1.6,2.24,2.12,2.19.3S386,266.35,384.41,267.12Z" style="fill:#fff"></path><path d="M405,370.63a2.49,2.49,0,0,0-1.39,2.37c-.14,2,.38,3.06,1.5,1.62S406.75,371.06,405,370.63Z" style="fill:#fff"></path><path d="M407.92,347.94s-1.24.41-1.38,2.37.38,3.06,1.49,1.63S409.66,348.37,407.92,347.94Z" style="fill:#fff"></path><path d="M416.64,332.14s-.38-1.25-2.33-1.45-3.07.29-1.67,1.44S416.15,333.86,416.64,332.14Z" style="fill:#fff"></path><path d="M411.43,296.83s-1.24.41-1.38,2.37.38,3.06,1.49,1.62S413.17,297.26,411.43,296.83Z" style="fill:#fff"></path><path d="M396.26,254.53a2.5,2.5,0,0,0-1.39,2.38c-.14,1.95.38,3,1.5,1.62S398,255,396.26,254.53Z" style="fill:#fff"></path><path d="M391.28,420.07a2.47,2.47,0,0,0-2.72.36c-1.63,1.09-2.18,2.18-.36,2.18S392,421.7,391.28,420.07Z" style="fill:#fff"></path><path d="M351.9,439.31a2.48,2.48,0,0,0-2.72.36c-1.64,1.09-2.18,2.18-.37,2.18S352.62,440.94,351.9,439.31Z" style="fill:#fff"></path><path d="M340.83,434.41a2.49,2.49,0,0,0-2.73.36c-1.63,1.09-2.17,2.18-.36,2.18S341.55,436,340.83,434.41Z" style="fill:#fff"></path><path d="M364.42,384.49a2.49,2.49,0,0,0-2.72.37c-1.63,1.08-2.18,2.17-.36,2.17S365.15,386.13,364.42,384.49Z" style="fill:#fff"></path><path d="M344.09,396.65a2.49,2.49,0,0,0-2.72.37c-1.63,1.09-2.18,2.17-.36,2.17S344.82,398.29,344.09,396.65Z" style="fill:#fff"></path><path d="M361.88,405.18a2.49,2.49,0,0,0-2.72.37c-1.64,1.09-2.18,2.18-.36,2.18S362.61,406.82,361.88,405.18Z" style="fill:#fff"></path><path d="M304.71,381.77a2.48,2.48,0,0,0-2.72.36c-1.64,1.09-2.18,2.18-.37,2.18S305.43,383.4,304.71,381.77Z" style="fill:#fff"></path><path d="M315.05,367.43s.55,4.72,1.64,3.27,2-3.45,1.09-4.54S315.78,364.89,315.05,367.43Z" style="fill:#fff"></path><path d="M305.25,372.7s.55,4.71,1.64,3.26,2-3.45,1.08-4.54S306,370.15,305.25,372.7Z" style="fill:#fff"></path><path d="M322.13,356.36s.91,4,1.82,3.09.9-3.63.18-4.36S322.86,354,322.13,356.36Z" style="fill:#fff"></path><path d="M286.38,331.31s.9,4,1.81,3.09.91-3.63.18-4.36S287.1,329,286.38,331.31Z" style="fill:#fff"></path><path d="M337.74,309.17s.91,4,1.82,3.08.9-3.63.18-4.35S338.47,306.81,337.74,309.17Z" style="fill:#fff"></path><path d="M386.2,380s.91,4,1.82,3.08.9-3.63.18-4.36S386.93,377.6,386.2,380Z" style="fill:#fff"></path><path d="M377.85,424.42s.91,4,1.82,3.09.91-3.63.18-4.36S378.58,422.06,377.85,424.42Z" style="fill:#fff"></path><path d="M311.06,375.42s.91,4,1.82,3.08.9-3.63.18-4.35S311.79,373.06,311.06,375.42Z" style="fill:#fff"></path><path d="M313.42,417.89s.91,4,1.82,3.08.9-3.63.18-4.35S314.15,415.53,313.42,417.89Z" style="fill:#fff"></path><path d="M285.29,363.62s.9,4,1.81,3.09.91-3.63.18-4.36S286,361.26,285.29,363.62Z" style="fill:#fff"></path><path d="M323.4,364.53s1.64,5.08,2.36,4.54,2-3.82.91-4.91S324,362.71,323.4,364.53Z" style="fill:#fff"></path><path d="M323.58,307.54s1.64,5.08,2.36,4.53,2-3.81.91-4.9S324.13,305.72,323.58,307.54Z" style="fill:#fff"></path><path d="M321.77,415.89s1.63,5.08,2.36,4.54,2-3.81.91-4.9S322.31,414.08,321.77,415.89Z" style="fill:#fff"></path><path d="M293.45,367.43s1.64,5.08,2.36,4.54,2-3.81.91-4.9S294,365.62,293.45,367.43Z" style="fill:#fff"></path></g><g id="freepik--food-1--inject-135"><circle cx="137.25" cy="158.43" r="121.62" transform="translate(-71.83 143.45) rotate(-45)" style="fill:#263238;stroke:#263238;stroke-miterlimit:10"></circle><circle cx="142.23" cy="149.96" r="121.62" transform="translate(-64.38 144.49) rotate(-45)" style="fill:#fff;stroke:#263238;stroke-miterlimit:10"></circle><path d="M142.23,33.48A116.51,116.51,0,0,0,28.49,124.72,116.54,116.54,0,0,1,200.29,251c-1,.57-2,1.12-3,1.66A116.5,116.5,0,0,0,142.23,33.48Z" style="opacity:0.07"></path><path d="M224.67,218.1s2.56,2.58,8-1.27,2.23-10.35-.12-12.19c0,0,6.37-2.64,6.36-8.82s-3.54-8.71-3.54-8.71,4.17-2.8,2.39-11.4-5.23-9.72-6.52-11.4,4.85-6.27,3.11-14.16-9.32-11.68-11-12.69,2-2.24-3.8-8.65-11-4.92-12.73-5.92-3.83-7.06-8.26-8.08-10.38,2.09-10.38,2.09-11,43.35-12.68,53.56,1.73,15.65,4.13,16.61,16.17,4.75,22.1,18.32,5.72,23.14,7.21,23,8.81-4.86,11-5.85S224.67,218.1,224.67,218.1Z" style="fill:#d9d9d9;stroke:#263238;stroke-miterlimit:10"></path><path d="M218.16,214.5s3.81-4.38-2.19-8.1-9.17.16-10.88-1.37" style="fill:none;stroke:#263238;stroke-miterlimit:10"></path><path d="M222.21,215.32s5.18-7.58.17-12.11-11.25-1.88-13.94-1.79" style="fill:none;stroke:#263238;stroke-miterlimit:10"></path><path d="M218,199.07s4.59-3,2.95-9.42-5.48-11.09-10.19-6.37-10.43,8.49-11.18,3.86,2.56-2.85,6.23-4.35,13.5-4.23,12.94-10.67-7.43,2.24-8.76-.81" style="fill:#d9d9d9;stroke:#263238;stroke-miterlimit:10"></path><path d="M215.21,193.21s1.18-5.23-2-4.64-12.17,6.41-14.9,2.18-1-7.07,1.39-8.25,14.44-5.25,14.94-7.57-1.27-.22-1.81-.19" style="fill:none;stroke:#263238;stroke-miterlimit:10"></path><path d="M226.49,205.12s8.49-1.09,8.77-10.7-8.9-5.61-10.92-7.5,0-5.25,2.46-9.18,9.3-.09,8.73,3.23a4.67,4.67,0,0,1-6.37,3.39" style="fill:#d9d9d9;stroke:#263238;stroke-miterlimit:10"></path><path d="M221.23,200.44s8.16-1.11,8.82-5.78-.54-3.81-4.48-4.22-5.37-2.13-5.37-2.13" style="fill:#d9d9d9;stroke:#263238;stroke-miterlimit:10"></path><path d="M216.84,182.49s.35-8.86,5.46-11.6A8.83,8.83,0,0,1,234,173.26" style="fill:#d9d9d9;stroke:#263238;stroke-miterlimit:10"></path><path d="M212.09,130.31s4.29-.77,7.89,6.42,4.67,12.17,8.82,16.37,2.67,10-1.51,12.89" style="fill:#d9d9d9;stroke:#263238;stroke-miterlimit:10"></path><path d="M221.56,168.88s10.28-4.39,7.22-11.61-9-5.14-13.66-7.89-1.05-10.91-5.81-17.91-11.66-10.38-17.33-7.28" style="fill:#d9d9d9;stroke:#263238;stroke-miterlimit:10"></path><path d="M218.91,164.52s6.18.17,6.9-4.29S221,156,214.28,157.6s-5.74-2.7-5.74-2.7" style="fill:none;stroke:#263238;stroke-miterlimit:10"></path><path d="M208.7,147.85s-1.15-1.9-1.77-11.17-3.88-10-6.3-10" style="fill:#d9d9d9;stroke:#263238;stroke-miterlimit:10"></path><path d="M212.6,141.26s2-9.29-4.25-15.25-13.42-7.4-16.89-6" style="fill:#d9d9d9;stroke:#263238;stroke-miterlimit:10"></path><path d="M231.47,152.41a15.22,15.22,0,0,0-4.73-10.29c-4.85-4.79-2.71-4.57-8.13-10.74S208.35,126,208.35,126" style="fill:#d9d9d9;stroke:#263238;stroke-miterlimit:10"></path><path d="M234.67,175.93s-1.33-6-9.11-2.59-6.89,9.88-4.47,12.88,7.11,1.24,10.35,4,1.87,9.82-3.68,12.13" style="fill:none;stroke:#263238;stroke-miterlimit:10"></path><path d="M224.65,215s6.07,1.84,6.94-2.88a4.68,4.68,0,0,0-3.44-5.7s1.86,4.24-1.46,5.42" style="fill:none;stroke:#263238;stroke-miterlimit:10"></path><path d="M195.16,137.63s2.57-2.58,8.05,1.27,2.22,10.34-.12,12.18c0,0,6.36,2.64,6.36,8.82s-3.54,8.72-3.54,8.72,4.17,2.8,2.39,11.39-5.23,9.72-6.52,11.4,4.85,6.28,3.11,14.17-9.33,11.68-11,12.68,2,2.24-3.81,8.65-11,4.92-12.73,5.93-3.83,7.06-8.26,8.08-10.38-2.1-10.38-2.1-11-43.35-12.67-53.55,1.72-15.65,4.13-16.62,16.16-4.75,22.09-18.31,5.73-23.15,7.21-23,8.81,4.85,11,5.85S195.16,137.63,195.16,137.63Z" style="fill:#d9d9d9;stroke:#263238;stroke-miterlimit:10"></path><path d="M188.65,141.23s3.81,4.38-2.19,8.1-9.17-.16-10.88,1.37" style="fill:#d9d9d9;stroke:#263238;stroke-miterlimit:10"></path><path d="M192.7,140.41s5.18,7.58.18,12.1-11.25,1.89-13.95,1.79" style="fill:#d9d9d9;stroke:#263238;stroke-miterlimit:10"></path><path d="M188.53,156.66s4.59,3,2.95,9.42-5.49,11.09-10.19,6.37-10.43-8.49-11.18-3.86,2.55,2.85,6.23,4.34,13.49,4.24,12.93,10.67-7.42-2.24-8.76.82" style="fill:#d9d9d9;stroke:#263238;stroke-miterlimit:10"></path><path d="M185.71,162.51s1.17,5.24-2,4.65-12.16-6.42-14.9-2.19-1.05,7.08,1.39,8.26,14.44,5.24,14.94,7.56-1.26.23-1.8.2" style="fill:none;stroke:#263238;stroke-miterlimit:10"></path><path d="M197,150.61s8.49,1.09,8.76,10.7-8.9,5.6-10.92,7.5,0,5.25,2.47,9.18,9.29.09,8.72-3.24a4.67,4.67,0,0,0-6.36-3.39" style="fill:#d9d9d9;stroke:#263238;stroke-miterlimit:10"></path><path d="M191.73,155.29s8.16,1.11,8.82,5.77-.54,3.81-4.48,4.22-5.37,2.13-5.37,2.13" style="fill:none;stroke:#263238;stroke-miterlimit:10"></path><path d="M187.33,173.24s.36,8.86,5.46,11.6a8.85,8.85,0,0,0,11.69-2.37" style="fill:#d9d9d9;stroke:#263238;stroke-miterlimit:10"></path><path d="M182.58,225.41s4.3.78,7.9-6.41,4.67-12.18,8.82-16.37,2.66-9.95-1.52-12.89" style="fill:#d9d9d9;stroke:#263238;stroke-miterlimit:10"></path><path d="M192.06,186.84s10.27,4.4,7.21,11.61-9,5.15-13.65,7.9-1.05,10.91-5.81,17.91-11.66,10.38-17.33,7.28" style="fill:#d9d9d9;stroke:#263238;stroke-miterlimit:10"></path><path d="M189.4,191.2s6.19-.16,6.9,4.3-4.82,4.24-11.53,2.63-5.74,2.7-5.74,2.7" style="fill:#d9d9d9;stroke:#263238;stroke-miterlimit:10"></path><path d="M179.2,207.88s-1.15,1.89-1.78,11.16-3.88,10-6.3,10" style="fill:#d9d9d9;stroke:#263238;stroke-miterlimit:10"></path><path d="M183.09,214.47s2,9.29-4.25,15.24-13.41,7.41-16.88,6" style="fill:#d9d9d9;stroke:#263238;stroke-miterlimit:10"></path><path d="M202,203.31a15.24,15.24,0,0,1-4.73,10.3c-4.85,4.79-2.71,4.57-8.13,10.74s-10.27,5.36-10.27,5.36" style="fill:#d9d9d9;stroke:#263238;stroke-miterlimit:10"></path><path d="M205.16,179.79s-1.32,6-9.1,2.6-6.89-9.89-4.48-12.89,7.12-1.24,10.36-4,1.87-9.83-3.68-12.13" style="fill:none;stroke:#263238;stroke-miterlimit:10"></path><path d="M195.15,140.71s6.06-1.84,6.93,2.88a4.66,4.66,0,0,1-3.43,5.69s1.85-4.24-1.46-5.42" style="fill:#d9d9d9;stroke:#263238;stroke-miterlimit:10"></path><path d="M45.71,145.9a31.56,31.56,0,0,1-3.39-6.36c-1.27-3.39,1.06-6.15.21-7.21s-2.54-1.9-2.75-3.18a6.29,6.29,0,0,1,.42-3c.21-.85.43-1.7-.63-2.12s-2.12.21-2.12-1.27a3.17,3.17,0,0,1,1.06-2.34,3.1,3.1,0,0,0-.43-2.11c-.63-.85-1.69-1.28-1.69-2.55s.21-2.54.84-2.75a19.86,19.86,0,0,1,2.34-.43s4.87-1.9,5.08-4.45,1.27-5.08,2.12-5.72-.63.21.85-.64a12.09,12.09,0,0,1,4-1l1.69.21a1.32,1.32,0,0,0,1.48.21c.85-.42-.42,1.06.85-.42s3-1.91,3-2.55-1.06-4-.42-6.14-.85-1.06,1.27-3.18-.43-1.06,2.12-2.12l2.54-1.06a34.62,34.62,0,0,1,3.39-3A17.46,17.46,0,0,1,72,80.83c.64-.21,1.91-.42,2.33-1.06s-.21-.42,1.27-2.54,1.7-2.33,2.55-2.75a22.76,22.76,0,0,0,2.75-1.91A17.22,17.22,0,0,0,83.16,70a11.35,11.35,0,0,1,2.61-1.64A31.66,31.66,0,0,1,90,66.41a7.19,7.19,0,0,1,2-2.32c1.06-.63,2.55-1.48,2.55-1.48l.21-1.7L97,58.37a24.21,24.21,0,0,1,2.33-.85,19.62,19.62,0,0,1,5.72-.42c.85,0,2.76-.21,2.76-.21a5.75,5.75,0,0,1,2.54-4.46c2.54-1.69-.42,1.28,2.54-1.69s4-2.54,5.94-1.91,3.39,2.76,3.39,4v1.27A4.3,4.3,0,0,1,124.55,56a6.2,6.2,0,0,0,1.91,2.12l2.75-.85a7.19,7.19,0,0,1,2.12-.85c.64,0,.85-1.48,2.55-1.69s4.23-.22,5.08.21a9,9,0,0,1,2.76,1.91,3.64,3.64,0,0,1,.42,1.69L144.26,63s2.76-.63,3.39-.85,1.7-1.48,3-1.06,1.48-1.06,2.54,1.06l1.06,2.12,1.48,1.27a3,3,0,0,1,2.12.85c.64.85.43,1.06.64,1.91l2.75,1.27,1.7,1.27.42,1.91-.42,1.91-1.7,2.12L159.1,78.5,156.34,80s1.48.42-3.39.84-3.18,0-4.87.43-3,.42-3.82.63-18.65.85-23.31,3.18-13.78,3.61-19.5,11.66-14,19.71-16.32,26.49S79.2,136.57,77.71,141s-.84,5.51-3.39,5.51-12.08-1.06-15.68-.63-8.27,2.33-10,1.9A6.59,6.59,0,0,1,45.71,145.9Z" style="fill:#969696;stroke:#263238;stroke-miterlimit:10"></path><path d="M43.38,122.8S43,127,46.14,127.25s4-1.91,4-1.91,1.7,2.54,2.76,1.48a10,10,0,0,0,1.69-2.33s1.06,1.7,2.12.85a17.91,17.91,0,0,0,2.12-2.12" style="fill:none;stroke:#263238;stroke-miterlimit:10"></path><path d="M58.85,106.27s2.33-.43,3.18.84a3.3,3.3,0,0,1,0,3s3.18.42,3.39,2.12a24.87,24.87,0,0,1,.21,2.75s1.27-1.69,2.33,0a6.21,6.21,0,0,1,1.06,3" style="fill:none;stroke:#263238;stroke-miterlimit:10"></path><path d="M100.81,69.6s-3,1.27-2.54,3a23.42,23.42,0,0,0,1.06,3.18S96.58,77.23,97,78.29a15.24,15.24,0,0,0,1.27,2.33s-2.33,0-2.54.85l-.21.85" style="fill:none;stroke:#263238;stroke-miterlimit:10"></path><path d="M128.79,61.76s3.39,1.7,3.18,3.18l-.21,1.48s1.69-.63,1.9.85l.22,1.48a2,2,0,0,1,2.33-.63,15.1,15.1,0,0,1,3,2.33" style="fill:none;stroke:#263238;stroke-miterlimit:10"></path><path d="M71.68,102.71s1,4.2,2.1,3.32S73.45,103,71.68,102.71Z" style="fill:#fff"></path><path d="M66.93,99.83c-.52.21-2,1.33-.67,2.44s2.77.66,2.66.11S67.48,99.61,66.93,99.83Z" style="fill:#fff"></path><path d="M88.27,92.54s1.1,3,2,2.87,1.44-1.77.66-2.21A9.8,9.8,0,0,0,88.27,92.54Z" style="fill:#fff"></path><path d="M92.47,86.68s-1.66,1.54-.66,2.54,1.66.11,1.66-1.11S93,86,92.47,86.68Z" style="fill:#fff"></path><path d="M98.11,84.68s-2.1.23-1.44,1.44,3.32,1.22,3.32.56A2.81,2.81,0,0,0,98.11,84.68Z" style="fill:#fff"></path><path d="M107.73,75.62s1.55,2.87,2.21,1.77a1.92,1.92,0,0,0-.44-2.66C108.84,74.4,108,74.29,107.73,75.62Z" style="fill:#fff"></path><path d="M109.28,68.1s-1.77.88-1.11,1.55,2.11,1.1,2.44.55S109.28,68.1,109.28,68.1Z" style="fill:#fff"></path><path d="M117.35,70.42a2.16,2.16,0,0,0-.44,3.32c.55.55,2-.45,1.77-1.88S118.24,69.87,117.35,70.42Z" style="fill:#fff"></path><path d="M121.89,66.11c-.45,0-2.88.44-2.77,1.66s2,.66,3.1-.34S121.89,66.11,121.89,66.11Z" style="fill:#fff"></path><path d="M128.3,67.32s-3.1-1.88-3.21-.44.34,1.55,1.77,1.55S128.3,67.32,128.3,67.32Z" style="fill:#fff"></path><path d="M99.66,63.12s0,1.77,1.1,2.1,1.22-.66.56-1.88S99.77,61.68,99.66,63.12Z" style="fill:#fff"></path><path d="M90.59,68.65s.77,2.43,1.66,2.21.44-2.32-.55-3.21S90.59,68.65,90.59,68.65Z" style="fill:#fff"></path><path d="M87.49,90.55s-2.76-1.88-3.42-1S85,91.32,86,91.43,88.27,91.65,87.49,90.55Z" style="fill:#fff"></path><path d="M105.63,83.47s1.11-2.21.33-3-1.44.11-1.44,1S104.75,84,105.63,83.47Z" style="fill:#fff"></path><path d="M110.83,81.15s-2.32-2.66-2.77-1.44.56,1.66,1.44,1.88S111.27,82.25,110.83,81.15Z" style="fill:#fff"></path><path d="M56.09,116.64s-.33-2.1-1.33-2.87-2.32,0-1.55,1.1S55.76,118.63,56.09,116.64Z" style="fill:#fff"></path><path d="M76,113.33s-1.88-1.44-2-.45.45,3.76,1.22,2.77S76.33,114.32,76,113.33Z" style="fill:#fff"></path><path d="M66.93,108.79s-1.22,1.88-.78,2.66,2,.33,2-1.11S67.81,106.91,66.93,108.79Z" style="fill:#fff"></path><path d="M51.07,145.44s-4.34-1.57-5.06.68a10.11,10.11,0,0,0-.49,4s-1.93,5.4-1.93,7.87a6.87,6.87,0,0,0,1.69,4.27s-1.93,6.08-.48,8.33A7.29,7.29,0,0,1,46.25,174s-2.66,1.57-2.17,3.15a7.32,7.32,0,0,0,2.17,2.92s-1.69,2.7.24,4.95a5.24,5.24,0,0,0,4.58,1.8s.49,3.82,2.66,5.17a10.9,10.9,0,0,0,3.86,1.58s1.21,5.85,2.65,7.87l1.45,2a16.28,16.28,0,0,0,1.69,4.05A10.66,10.66,0,0,0,67,210s2.66-.23,3.86.67,2.9,1.8,4.59,1.35,4.34-.9,4.34-.9,2.41,1.35,4.1.45a12.17,12.17,0,0,0,3.14-2.7s2.41.45,3.62-.45,2.17-4,2.17-4,1.93.23,2.66-1.12,1.93-2,2.41-3.15,1.45-1.35,3.14-2,2.65-.68,2.65-2.93a29.78,29.78,0,0,0-.24-3.37c0-.68,2.9-1.8,3.86-3.6a4,4,0,0,0,.24-3.37,3.48,3.48,0,0,0,.25-3.83c-1.21-2-10.38-9-13.52-16.42s-7-17.77-10.13-20a7.14,7.14,0,0,0-7.49-.67,30.67,30.67,0,0,1-2.89,1.35s-1.69-1.8-3.62-1.35S66.76,145,66,145s1.44-1.79-2.9-2.47a19.11,19.11,0,0,0-7.48.23Z" style="fill:#fff;stroke:#263238;stroke-miterlimit:10"></path><path d="M56.38,147.69s-3.38,2.7-2.65,5.4,6-2.47,6-2.47" style="fill:#fff;stroke:#263238;stroke-miterlimit:10"></path><path d="M61,155.12s.24,5.39,2.41,5.62,3.38-5.4,3.38-5.4,2.17,1.35,3.14-.45a11.73,11.73,0,0,0,1.2-3.37s.73,2,2.42,1.35a14.83,14.83,0,0,0,3.13-1.8" style="fill:#fff;stroke:#263238;stroke-miterlimit:10"></path><path d="M49.87,173.56s1.2,3.82,3.38,4.05,2.89-4.28,2.89-4.28,3.86,2.25,5.31.23a5.84,5.84,0,0,0,1-4.27" style="fill:#fff;stroke:#263238;stroke-miterlimit:10"></path><path d="M68.93,174.46s.24,3.6,2.9,5.17,3.13-2,3.13-2,2.66,7.42,3.62,9,3.62.9,3.14-2.47a41.34,41.34,0,0,0-2.65-8.32" style="fill:#fff;stroke:#263238;stroke-miterlimit:10"></path><path d="M62.42,190.2s2.89-1.8,5.31-1.57a11.29,11.29,0,0,1,4.82,2s2.9-1.57,4.1,0l1.21,1.58s3.62-.45,5.07.67a6.11,6.11,0,0,1,1.93,2.48s1.93-1.13,2.65.45a13.86,13.86,0,0,1,1,3.6" style="fill:#fff;stroke:#263238;stroke-miterlimit:10"></path><path d="M53.25,181.21s2.65-1.58,3.86-.9a11.19,11.19,0,0,1,2.65,2.92s1.21-2.47,3.38-1.35L65.31,183a3.62,3.62,0,0,1,4.59-.68c2.65,1.58,2.89,3.82,2.65,4.72" style="fill:#fff;stroke:#263238;stroke-miterlimit:10"></path><path d="M102,187.73s-2.65-3.37-4.58-2.7l-3.86,1.35s-1.21-2.7-2.9-2.25a3.39,3.39,0,0,0-2.17,1.35s-1.21-1.8-2.9-1.12-2.41,2.92-.24,4.49" style="fill:#fff;stroke:#263238;stroke-miterlimit:10"></path><path d="M71.83,165s.72,3.6,2.41,3.83,3.38-2.25,3.38-2.25,1.21,1.57,2.17,1.57S82,166.59,82,166.59s.73,1.57,1.93,1.35,2.66-.68,2.66-.68" style="fill:#fff;stroke:#263238;stroke-miterlimit:10"></path><path d="M45.28,162.31s3.38,2.93,5.07,1.8,1-3.6,1-3.6,4.35,1.58,4.83.23l.48-1.35" style="fill:#fff;stroke:#263238;stroke-miterlimit:10"></path><path d="M65.31,201.9s.24,2,3.38,2.92,4.59-2.47,4.59-2.47a4,4,0,0,0,3.62,2,4,4,0,0,0,3.62-1.8s2.41,3.15,4.58,2.7" style="fill:#fff;stroke:#263238;stroke-miterlimit:10"></path><path d="M162.91,74.69s-.85-3.27,4.81-5.83S177,72,177.4,74.71c0,0,5.12-3.84,10-.92s5.29,6.94,5.29,6.94,4.2-2,10.23,3.47,5.3,8.77,6,10.6,7.3-.92,12.78,4.2,4.93,13,4.93,14.79,2.74-.55,5.12,7.12-1.28,11.14-1.28,13,3.83,6.39,2.56,10.41-6.58,7.31-6.58,7.31-39.81-11.69-48.76-15.16-11.69-8.77-11.33-11.14,3.84-15.16-4.2-26.3-15.78-15.5-15-16.62,8-4.75,9.86-6S162.91,74.69,162.91,74.69Z" style="fill:#FFC100;stroke:#263238;stroke-miterlimit:10"></path><path d="M162.72,81.59s5.29-1,5.43,5.57-4.46,7.25-4,9.34" style="fill:none;stroke:#263238;stroke-miterlimit:10"></path><path d="M164,78s8.5-.55,9.75,5.58-3.8,9.88-5.15,12" style="fill:none;stroke:#263238;stroke-miterlimit:10"></path><path d="M175,89s4.6-2.23,8.92,2.09,6.27,9.62.28,11.15-11.71,4.32-8.37,7.11,3.49-.7,6.42-2.93,9.75-8.78,14.63-5.29-5.3,4.87-3.49,7.38" style="fill:none;stroke:#263238;stroke-miterlimit:10"></path><path d="M178.32,94s4.74,1.53,2.79,3.76-10.87,6.69-8.78,10.87,5.16,4.18,7.25,2.79,11-9.06,13.1-8.36-.42,1.11-.7,1.53" style="fill:none;stroke:#263238;stroke-miterlimit:10"></path><path d="M174.14,79.36s4.88-6.27,12.68-2,.28,9.75.84,12.26,4.18,2.51,8.5,2.37,4.46-7.39,1.53-8.5A4.33,4.33,0,0,0,192,87" style="fill:none;stroke:#263238;stroke-miterlimit:10"></path><path d="M175.4,85.77s4.73-6,8.78-4.32S187,83.68,185.43,87s-.84,5.3-.84,5.3" style="fill:none;stroke:#263238;stroke-miterlimit:10"></path><path d="M187.66,97.75s7.25,3.9,11.85,1.12a8.22,8.22,0,0,0,3.62-10.45" style="fill:none;stroke:#263238;stroke-miterlimit:10"></path><path d="M227.1,126.18s2.65-3.06-1.4-9.34-7.52-9.47-8.91-14.77-6.69-6.83-11-4.87" style="fill:#FFC100;stroke:#263238;stroke-miterlimit:10"></path><path d="M200.76,100.4s8.36-6.13,12.68-.28-.14,9.62-.14,14.63,8.22,6,11.57,13.1,2.79,14.22-2.37,17.28" style="fill:none;stroke:#263238;stroke-miterlimit:10"></path><path d="M203,104.58s2.79-5,6.69-3.48,1.11,5.85-3.35,10.45-.54,5.86-.54,5.86" style="fill:none;stroke:#263238;stroke-miterlimit:10"></path><path d="M211.49,120.61s1,1.81,8.08,6.69,6.13,7.8,5,9.75" style="fill:none;stroke:#263238;stroke-miterlimit:10"></path><path d="M218.6,120.61s8.36,2.78,10.17,10.59-.42,14.21-3.21,16.3" style="fill:none;stroke:#263238;stroke-miterlimit:10"></path><path d="M218.6,100.26a14.15,14.15,0,0,1,6,8.64c1.53,6.13,2.37,4.32,4.74,11.57s-.56,10.73-.56,10.73" style="fill:none;stroke:#263238;stroke-miterlimit:10"></path><path d="M201.32,86.6s4.18,3.91-2.23,8.5-11.15.84-12.41-2.5,2.37-6.27,1.68-10.18-7-6.13-11.43-2.78" style="fill:none;stroke:#263238;stroke-miterlimit:10"></path><path d="M165.36,76.15s1.4-5.71,5.58-4.18a4.33,4.33,0,0,1,2.92,5.44s-2.5-3.49-5-1.4" style="fill:none;stroke:#263238;stroke-miterlimit:10"></path><path d="M180.62,121.17a2.76,2.76,0,0,1,3.64.13c1.68,1.69,2.72,2.47,3.89,4.54s6.74,6,13.23,5.58,6.38-1.62,6.17,1.26,3.29,4.31,6,3.15,1.68-4.8,2.07-6.49,1.69-1.81,4.93,1.95,2.59,5.45.65,6.35-3.37.65-3.24,1,7.91,1.43,6.61,3-1.43-1.42-8.3-1.94-12.19-.52-18.68,3.24-7.39,4-12.19,8.56-5.06,6.49-10,7-9.21-.77-9.08-4.28,2.85-9.46,2.2-15.82,2.34-12.32,3.25-14.65S179.33,120.91,180.62,121.17Z" style="fill:#fff;stroke:#263238;stroke-miterlimit:10"></path><path d="M209,145.94c-1.17-3.5-6.62-6.48-10.9-6.87s-6-.52-10.76,2.33-7.91,5.45-8.82,7.92-.65,3.63-2.59,4.54-4.41-.39-3.38-3.9,5.58-8.94,1.17-6.74-5.32,9.73-3.63,12.06,4,1.69,8.3-2.2,7.91-8.17,9.34-8.43,3.37,2.07,3.37,2.07a71.09,71.09,0,0,1,10.38,2.73C206,151.13,210.19,149.45,209,145.94Zm-4.41,1.3c-2.47-.13-11.16-3.37-11.16-3.37s-3.76.26-1.16-.78a12.41,12.41,0,0,1,8.95-.26C204.36,144,207.08,147.37,204.62,147.24Z" style="fill:#fff;stroke:#263238;stroke-miterlimit:10"></path><path d="M170.51,152.17a3.48,3.48,0,0,0,3.37,2.46" style="fill:#fff;stroke:#263238;stroke-miterlimit:10"></path><path d="M168.23,161.26s10.32-.65,13.75-7.31,7.31-10.95,16.12-13.1,18.69.21,19.76-3.66-4.3-6.87-10.31-4.51-10.53,4.51-15.47,4.51-6.87-7.73-4.94-7.51,2.79,3.22,6.66,3.43,3-1.72,12-3.22,13.11.43,13.75,4.3,0,6.23-4.51,7.3-13.54,0-20.63,3.87-2.14,5.58-10.52,11.6S168.45,164.48,168.23,161.26Z" style="fill:#fff;stroke:#263238;stroke-miterlimit:10"></path><path d="M175.44,120.91s6.22-3.63,11.41-1.81,1.43,6.09,9.6,6.22,10.76-4,12.84-1.81,2.07,3.37,2.07,3.37,2.21-2.73-1.29-4.54-3.64-.65-9.6.39-3.12-.78-8.17-4-9-4.41-12.45-2.47S174.53,119.23,175.44,120.91Z" style="fill:#fff;stroke:#263238;stroke-miterlimit:10"></path><path d="M172.71,121.43s-1.68-3.76,1.69-5.06,8.95-2.72,8.82-4.54-3-4.79.91-6.61,10.5.91,11,3.89,1.17,2.33,2.2,4.15,2.08,2.59-1.68,3-6.87,1.17-6.36-1.68,2.34-6.62-.39-7.14-5-1.29-3.76,1.56,3.12,3.76,1,5.19-10.5,4-11,5.32,5.18.13,6.74,1.94,3,3-.91,3.76-3.11-1-5.44-1.29-3.38.51-3.76-.13S172.71,121.43,172.71,121.43Z" style="fill:#fff;stroke:#263238;stroke-miterlimit:10"></path><path d="M202.54,106.13c-1.37.38-5.06.39-3,1.16s7.52,1,4.67,1.56-4-.13-6.49,2-2.33,3-4.79,5.31-7.79,3.64-7.53,7.92,4.15,9.46,7.91,10.37,9.6-1.69,11-5.06-.26-2.07-.39-5.7,1.17-4.41,1.82-3.38-.65,5.32,2.46,6,6,.26,6.61,1.3-2.72-1.3-5.57-4-.52-4.67-3.5-6.1-9.73.52-9.47,3.24-.13,4-1.43,4.28-2.33,2.47-3.89.65-3-4,1.3-6.87,5.57-4.67,8.56-6.75,6.35-1.68,6.22-3.24S204.88,105.48,202.54,106.13Z" style="fill:#fff;stroke:#263238;stroke-miterlimit:10"></path><path d="M185,147c0-.41-.13-3.24-3.76-5.71s-6.74-3-6.48-6,5.32-7.52,1.55-6.23-6,4.41-4.15,7.91,4.41,3.77,8.17,6.75S185.16,149.83,185,147Z" style="fill:#fff;stroke:#263238;stroke-miterlimit:10"></path><path d="M181.66,127a19,19,0,0,1-3.37,3.5" style="fill:#fff;stroke:#263238;stroke-miterlimit:10"></path><path d="M175.31,136.22a17.51,17.51,0,0,0,8.69-8.3" style="fill:#fff;stroke:#263238;stroke-miterlimit:10"></path><path d="M176.73,138.42s2.47-2.07,7-1,5.18,1.17,6.48.52" style="fill:#fff;stroke:#263238;stroke-miterlimit:10"></path><path d="M186.33,132.84s-1.17,2.21-6.09,3.25" style="fill:#fff;stroke:#263238;stroke-miterlimit:10"></path><path d="M202.41,135.83a12.49,12.49,0,0,0,8,2.59c4.67-.26,5.58-1.43,6.75-4.15" style="fill:none;stroke:#263238;stroke-miterlimit:10"></path><path d="M175.05,145.55s3.11.39,4,2.47" style="fill:#fff;stroke:#263238;stroke-miterlimit:10"></path><path d="M174.14,139.46a7.51,7.51,0,0,0-3.89,3.63" style="fill:#fff;stroke:#263238;stroke-miterlimit:10"></path><path d="M176.86,124.54a17,17,0,0,0-4,4.41" style="fill:#fff;stroke:#263238;stroke-miterlimit:10"></path><path d="M113.15,184.72s-.34,9.32-.18,11.06,3,2.78,4.37.95,1.39-10.81,1-12.48S114.53,182.89,113.15,184.72Z" style="fill:#d9d9d9;stroke:#263238;stroke-miterlimit:10"></path><path d="M119.92,180.34s.4,14,2.43,15.31,5,.27,5-1.07-1.5-11.38-1.87-14.39-2.33-3.45-4.33-2.75S119.92,180.34,119.92,180.34Z" style="fill:#d9d9d9;stroke:#263238;stroke-miterlimit:10"></path><path d="M125.05,182.81s4.43,9.46,5.65,11.05,4.62-.94,4.59-3-3.2-7.86-5.59-11.51S123.45,178.21,125.05,182.81Z" style="fill:#d9d9d9;stroke:#263238;stroke-miterlimit:10"></path><path d="M143.58,179.94s-7.87,3.19-8.78,5.08.55,5.42,2.55,4.72,10.06-4,11.59-5.39.54-4.23-1.14-4.54A15.07,15.07,0,0,0,143.58,179.94Z" style="fill:#d9d9d9;stroke:#263238;stroke-miterlimit:10"></path><path d="M142.08,194.79a4,4,0,0,0-4.6.74,1.82,1.82,0,0,0-.08,2.73c2.25,2.58,10.86,9.23,11.8,10s2.42.5,3.32-2.73-2.09-5.33-4.87-7.51A32.25,32.25,0,0,0,142.08,194.79Z" style="fill:#d9d9d9;stroke:#263238;stroke-miterlimit:10"></path><path d="M128.76,198.58s-8.65,4.81-8.7,5.95a2.65,2.65,0,0,0,2.52,2.71c1.54-.09,13.65-6.56,13.28-8.9S131.54,196.26,128.76,198.58Z" style="fill:#d9d9d9;stroke:#263238;stroke-miterlimit:10"></path><path d="M125.14,198.49s-9.93-.79-11.65.7-2.36,4.19-1.21,4.91,6.68-1.43,9.49-2.41S126.3,199.89,125.14,198.49Z" style="fill:#d9d9d9;stroke:#263238;stroke-miterlimit:10"></path><path d="M137.94,169.56s-5.2,7-5.63,9.6.71,3.34,2.59,2.91,8.25-8.49,8.83-10.71S140.71,166.57,137.94,169.56Z" style="fill:#d9d9d9;stroke:#263238;stroke-miterlimit:10"></path><path d="M137.82,219.19s-.34,9.32-.18,11.06,3,2.77,4.37.95,1.39-10.81,1-12.49S139.2,217.36,137.82,219.19Z" style="fill:#d9d9d9;stroke:#263238;stroke-miterlimit:10"></path><path d="M144.6,214.81s.39,14,2.42,15.31,5,.26,5-1.08-1.5-11.37-1.88-14.38-2.33-3.45-4.33-2.75S144.6,214.81,144.6,214.81Z" style="fill:#d9d9d9;stroke:#263238;stroke-miterlimit:10"></path><path d="M149.73,217.28s4.42,9.46,5.65,11.05,4.61-.94,4.58-3-3.19-7.86-5.59-11.52S148.12,212.68,149.73,217.28Z" style="fill:#d9d9d9;stroke:#263238;stroke-miterlimit:10"></path><path d="M168.25,214.41s-7.86,3.19-8.77,5.08.54,5.42,2.54,4.72,10.07-4,11.59-5.39.54-4.23-1.14-4.54A15.07,15.07,0,0,0,168.25,214.41Z" style="fill:#d9d9d9;stroke:#263238;stroke-miterlimit:10"></path><path d="M166.75,229.26a4,4,0,0,0-4.6.74,1.81,1.81,0,0,0-.08,2.72c2.25,2.59,10.86,9.23,11.81,10s2.42.5,3.31-2.73-2.09-5.33-4.86-7.51A32.33,32.33,0,0,0,166.75,229.26Z" style="fill:#d9d9d9;stroke:#263238;stroke-miterlimit:10"></path><path d="M153.43,233.05s-8.64,4.81-8.69,5.95a2.64,2.64,0,0,0,2.51,2.71c1.54-.09,13.65-6.56,13.28-8.9S156.22,230.73,153.43,233.05Z" style="fill:#d9d9d9;stroke:#263238;stroke-miterlimit:10"></path><path d="M149.81,233s-9.93-.8-11.65.7-2.35,4.19-1.21,4.91,6.69-1.43,9.49-2.41S151,234.35,149.81,233Z" style="fill:#d9d9d9;stroke:#263238;stroke-miterlimit:10"></path><path d="M162.61,204s-5.2,7-5.63,9.6.72,3.34,2.59,2.91,8.26-8.5,8.83-10.72S165.38,201,162.61,204Z" style="fill:#d9d9d9;stroke:#263238;stroke-miterlimit:10"></path><path d="M122,205.75s-2.43-9-3.1-10.62-3.68-1.77-4.45.39,1.87,10.74,2.7,12.23S121.26,207.9,122,205.75Z" style="fill:#d9d9d9;stroke:#263238;stroke-miterlimit:10"></path><path d="M116.87,211.94S112.34,198.68,110,198s-4.89,1.24-4.47,2.51,4.8,10.42,6,13.19,3.24,2.61,5,1.35S116.87,211.94,116.87,211.94Z" style="fill:#d9d9d9;stroke:#263238;stroke-miterlimit:10"></path><path d="M111.24,211.1s-7-7.73-8.67-8.88-4.13,2.26-3.51,4.17,5.38,6.56,8.75,9.34S114.13,215,111.24,211.1Z" style="fill:#d9d9d9;stroke:#263238;stroke-miterlimit:10"></path><path d="M94.39,219.32s6.57-5.37,6.88-7.45-2.13-5-3.83-3.76S89,214.88,88,216.69s.73,4.2,2.43,4A15.13,15.13,0,0,0,94.39,219.32Z" style="fill:#d9d9d9;stroke:#263238;stroke-miterlimit:10"></path><path d="M91.43,204.69a4,4,0,0,0,4.17-2.06,1.82,1.82,0,0,0-.73-2.63c-2.91-1.8-13.1-5.61-14.24-6.08s-2.46.24-2.36,3.59,3.57,4.47,6.87,5.72A31.56,31.56,0,0,0,91.43,204.69Z" style="fill:#d9d9d9;stroke:#263238;stroke-miterlimit:10"></path><path d="M103,197.13s6.83-7.15,6.54-8.26a2.64,2.64,0,0,0-3.2-1.84c-1.45.54-11.1,10.3-10.06,12.43S101.06,200.17,103,197.13Z" style="fill:#d9d9d9;stroke:#263238;stroke-miterlimit:10"></path><path d="M106.51,196.14s9.72-2.18,10.93-4.12,1-4.69-.31-5-6,3.35-8.34,5.11S105,195.16,106.51,196.14Z" style="fill:#d9d9d9;stroke:#263238;stroke-miterlimit:10"></path><path d="M102.85,227.57s2.9-8.21,2.54-10.84-1.68-3-3.34-2-5.37,10.56-5.26,12.84S101.09,231.24,102.85,227.57Z" style="fill:#d9d9d9;stroke:#263238;stroke-miterlimit:10"></path><path d="M162.94,202.36s-2.43-9-3.1-10.62-3.67-1.77-4.45.39,1.87,10.74,2.71,12.23S162.17,204.51,162.94,202.36Z" style="fill:#d9d9d9;stroke:#263238;stroke-miterlimit:10"></path><path d="M157.77,208.55s-4.52-13.26-6.85-13.91-4.88,1.24-4.47,2.51,4.8,10.42,6.05,13.19,3.25,2.6,4.95,1.35S157.77,208.55,157.77,208.55Z" style="fill:#d9d9d9;stroke:#263238;stroke-miterlimit:10"></path><path d="M152.14,207.7s-7-7.72-8.67-8.87-4.13,2.25-3.5,4.17,5.37,6.56,8.74,9.34S155,211.63,152.14,207.7Z" style="fill:#d9d9d9;stroke:#263238;stroke-miterlimit:10"></path><path d="M135.29,215.93s6.57-5.37,6.88-7.45-2.12-5-3.83-3.76-8.44,6.77-9.47,8.58.73,4.2,2.43,4A15,15,0,0,0,135.29,215.93Z" style="fill:#d9d9d9;stroke:#263238;stroke-miterlimit:10"></path><path d="M132.33,201.3a4,4,0,0,0,4.17-2.06,1.81,1.81,0,0,0-.73-2.63c-2.91-1.8-13.1-5.61-14.24-6.08s-2.46.24-2.36,3.58,3.58,4.48,6.87,5.73A31.72,31.72,0,0,0,132.33,201.3Z" style="fill:#d9d9d9;stroke:#263238;stroke-miterlimit:10"></path><path d="M143.93,193.74s6.84-7.15,6.55-8.26a2.66,2.66,0,0,0-3.21-1.84c-1.45.54-11.1,10.3-10.05,12.43S142,196.78,143.93,193.74Z" style="fill:#d9d9d9;stroke:#263238;stroke-miterlimit:10"></path><path d="M147.41,192.75s9.73-2.18,10.93-4.12,1-4.69-.3-5-6,3.34-8.35,5.11S145.9,191.76,147.41,192.75Z" style="fill:#d9d9d9;stroke:#263238;stroke-miterlimit:10"></path><path d="M143.75,224.18s2.9-8.21,2.54-10.84-1.67-3-3.33-2-5.38,10.55-5.27,12.84S142,227.85,143.75,224.18Z" style="fill:#d9d9d9;stroke:#263238;stroke-miterlimit:10"></path><path d="M102.48,219.16s-.34,9.32-.18,11.06,3,2.77,4.37.95,1.39-10.82,1-12.49S103.86,217.33,102.48,219.16Z" style="fill:#d9d9d9;stroke:#263238;stroke-miterlimit:10"></path><path d="M109.25,214.77s.4,14,2.43,15.32,5,.26,5-1.08-1.5-11.37-1.87-14.38-2.33-3.45-4.33-2.75S109.25,214.77,109.25,214.77Z" style="fill:#d9d9d9;stroke:#263238;stroke-miterlimit:10"></path><path d="M114.38,217.25s4.43,9.46,5.65,11.05,4.62-.94,4.59-3-3.2-7.86-5.59-11.52S112.78,212.65,114.38,217.25Z" style="fill:#d9d9d9;stroke:#263238;stroke-miterlimit:10"></path><path d="M132.91,214.38s-7.86,3.19-8.78,5.08.55,5.42,2.55,4.72,10.06-4,11.59-5.39.54-4.23-1.14-4.54A15.07,15.07,0,0,0,132.91,214.38Z" style="fill:#d9d9d9;stroke:#263238;stroke-miterlimit:10"></path><path d="M131.41,229.23a4,4,0,0,0-4.6.74,1.81,1.81,0,0,0-.08,2.72c2.25,2.59,10.86,9.23,11.81,10s2.42.5,3.31-2.73-2.09-5.34-4.87-7.51A31.89,31.89,0,0,0,131.41,229.23Z" style="fill:#d9d9d9;stroke:#263238;stroke-miterlimit:10"></path><path d="M118.09,233s-8.65,4.81-8.7,5.95a2.65,2.65,0,0,0,2.52,2.71c1.54-.09,13.65-6.56,13.28-8.9S120.87,230.7,118.09,233Z" style="fill:#d9d9d9;stroke:#263238;stroke-miterlimit:10"></path><path d="M114.47,232.93s-9.93-.8-11.65.7-2.36,4.19-1.21,4.91,6.69-1.43,9.49-2.41S115.63,234.32,114.47,232.93Z" style="fill:#d9d9d9;stroke:#263238;stroke-miterlimit:10"></path><path d="M127.27,204s-5.2,7-5.63,9.6.72,3.34,2.59,2.91,8.25-8.5,8.83-10.72S130,201,127.27,204Z" style="fill:#d9d9d9;stroke:#263238;stroke-miterlimit:10"></path><path d="M105.84,192.25s-3.39,8.69-3.82,10.38,1.91,3.6,3.82,2.33,4.87-9.75,5.08-11.44S107.74,191,105.84,192.25Z" style="fill:#d9d9d9;stroke:#263238;stroke-miterlimit:10"></path><path d="M113.68,190.34s-4.24,13.35-2.76,15.26,4.67,1.91,5.09.63,2.33-11.23,3-14.2-1.06-4-3.18-4S113.68,190.34,113.68,190.34Z" style="fill:#d9d9d9;stroke:#263238;stroke-miterlimit:10"></path><path d="M117.71,194.37s1.05,10.38,1.69,12.29,4.66.63,5.3-1.27-.42-8.48-1.48-12.72S117.71,189.49,117.71,194.37Z" style="fill:#d9d9d9;stroke:#263238;stroke-miterlimit:10"></path><path d="M136.14,197.76s-8.47.42-10,1.9-1.27,5.3.85,5.3,10.81-.42,12.72-1.27,1.9-3.81.42-4.66A14.92,14.92,0,0,0,136.14,197.76Z" style="fill:#d9d9d9;stroke:#263238;stroke-miterlimit:10"></path><path d="M151.19,209.41s-6.36.64-9.54,1.27-4.45.64-3.6,3,1.48,3.18,3.82,3,11.23-1.48,12.5-2.76A2.85,2.85,0,0,0,151.19,209.41Z" style="fill:#d9d9d9;stroke:#263238;stroke-miterlimit:10"></path><path d="M151.19,219.37s-13.14,4-15.05,5.51-1.06,3.61,1.49,4.24,17.59-6.78,20.55-7.42,4.24-2.11,2.12-3.6S154.79,217.89,151.19,219.37Z" style="fill:#d9d9d9;stroke:#263238;stroke-miterlimit:10"></path><path d="M129.83,211.28a4,4,0,0,0-4.58-.81,1.81,1.81,0,0,0-1,2.55c1.27,3.17,7.2,12.29,7.84,13.35s2.12,1.27,4-1.49-.21-5.72-2.12-8.69A32.1,32.1,0,0,0,129.83,211.28Z" style="fill:#d9d9d9;stroke:#263238;stroke-miterlimit:10"></path><path d="M115.59,221.92s1.48,12.5,2.54,14.83,6.36,3.39,7,1.06-2.54-13.35-3-15.26S116.22,219.16,115.59,221.92Z" style="fill:#d9d9d9;stroke:#263238;stroke-miterlimit:10"></path><path d="M170.48,230.82s-17.38-2.76-18.65-.85-1.91,4.24-.85,4.66,16.53,1.27,18.65.85S172.81,231.45,170.48,230.82Z" style="fill:#d9d9d9;stroke:#263238;stroke-miterlimit:10"></path><path d="M116,210.47s-9.75,1.7-10.17,2.76a2.65,2.65,0,0,0,1.48,3.39c1.48.42,15.05-1.7,15.47-4S119.4,209.2,116,210.47Z" style="fill:#d9d9d9;stroke:#263238;stroke-miterlimit:10"></path><path d="M112.62,209.2s-9.11-4-11.23-3.18-3.61,3.18-2.76,4.24,6.78.85,9.75.85S113.25,210.9,112.62,209.2Z" style="fill:#d9d9d9;stroke:#263238;stroke-miterlimit:10"></path><path d="M134.24,186.1s-7.21,4.87-8.48,7.21-.43,3.39,1.48,3.6,10.6-5.3,11.87-7.21S137.84,184.19,134.24,186.1Z" style="fill:#d9d9d9;stroke:#263238;stroke-miterlimit:10"></path><path d="M99.65,195.17s-.34,9.32-.18,11.06,3,2.77,4.37,1,1.39-10.82,1-12.49S101,193.34,99.65,195.17Z" style="fill:#d9d9d9;stroke:#263238;stroke-miterlimit:10"></path><path d="M106.42,190.78s.4,14,2.43,15.32,5,.26,5-1.08-1.5-11.37-1.87-14.38-2.33-3.45-4.33-2.75S106.42,190.78,106.42,190.78Z" style="fill:#d9d9d9;stroke:#263238;stroke-miterlimit:10"></path><path d="M111.55,193.26s4.43,9.46,5.65,11.05,4.62-.94,4.59-2.95-3.2-7.86-5.59-11.52S110,188.66,111.55,193.26Z" style="fill:#d9d9d9;stroke:#263238;stroke-miterlimit:10"></path><path d="M130.08,190.39s-7.87,3.19-8.78,5.08.55,5.42,2.55,4.72,10.06-4,11.59-5.39.54-4.23-1.14-4.54A15.07,15.07,0,0,0,130.08,190.39Z" style="fill:#d9d9d9;stroke:#263238;stroke-miterlimit:10"></path><path d="M128.58,205.24a4,4,0,0,0-4.6.74,1.81,1.81,0,0,0-.08,2.72c2.25,2.59,10.86,9.23,11.8,10s2.42.5,3.32-2.73-2.09-5.33-4.87-7.51A32.25,32.25,0,0,0,128.58,205.24Z" style="fill:#d9d9d9;stroke:#263238;stroke-miterlimit:10"></path><path d="M115.26,209s-8.65,4.81-8.7,5.95a2.65,2.65,0,0,0,2.52,2.71c1.54-.09,13.65-6.56,13.28-8.9S118,206.71,115.26,209Z" style="fill:#d9d9d9;stroke:#263238;stroke-miterlimit:10"></path><path d="M111.64,208.94s-9.93-.8-11.65.7-2.36,4.19-1.21,4.91,6.68-1.43,9.49-2.41S112.8,210.33,111.64,208.94Z" style="fill:#d9d9d9;stroke:#263238;stroke-miterlimit:10"></path><path d="M124.44,180s-5.2,7-5.63,9.6.71,3.34,2.59,2.91,8.25-8.5,8.83-10.72S127.21,177,124.44,180Z" style="fill:#d9d9d9;stroke:#263238;stroke-miterlimit:10"></path><path d="M124.32,229.64s-.34,9.32-.18,11.06,3,2.77,4.37.94,1.39-10.81,1-12.48S125.7,227.81,124.32,229.64Z" style="fill:#d9d9d9;stroke:#263238;stroke-miterlimit:10"></path><path d="M131.1,225.25s.39,14,2.42,15.32,5,.26,5-1.08-1.5-11.37-1.88-14.38-2.33-3.45-4.33-2.76S131.1,225.25,131.1,225.25Z" style="fill:#d9d9d9;stroke:#263238;stroke-miterlimit:10"></path><path d="M136.23,227.73s4.42,9.45,5.65,11.05,4.61-.94,4.58-2.95-3.19-7.87-5.59-11.52S134.62,223.13,136.23,227.73Z" style="fill:#d9d9d9;stroke:#263238;stroke-miterlimit:10"></path><path d="M154.75,224.85s-7.86,3.2-8.77,5.09.54,5.42,2.54,4.72,10.07-4,11.59-5.39.54-4.23-1.14-4.54A15.23,15.23,0,0,0,154.75,224.85Z" style="fill:#d9d9d9;stroke:#263238;stroke-miterlimit:10"></path><path d="M153.25,239.71a4,4,0,0,0-4.6.74,1.81,1.81,0,0,0-.08,2.72c2.25,2.58,10.86,9.23,11.81,10s2.42.51,3.31-2.72-2.09-5.34-4.86-7.51A32.33,32.33,0,0,0,153.25,239.71Z" style="fill:#d9d9d9;stroke:#263238;stroke-miterlimit:10"></path><path d="M139.93,243.49s-8.64,4.82-8.69,6a2.64,2.64,0,0,0,2.51,2.71c1.54-.09,13.65-6.56,13.28-8.9S142.71,241.18,139.93,243.49Z" style="fill:#d9d9d9;stroke:#263238;stroke-miterlimit:10"></path><path d="M136.31,243.41s-9.93-.8-11.65.7-2.35,4.19-1.21,4.91,6.69-1.43,9.49-2.41S137.47,244.8,136.31,243.41Z" style="fill:#d9d9d9;stroke:#263238;stroke-miterlimit:10"></path><path d="M149.11,214.48s-5.2,7-5.63,9.59.72,3.35,2.59,2.92,8.26-8.5,8.83-10.72S151.88,211.49,149.11,214.48Z" style="fill:#d9d9d9;stroke:#263238;stroke-miterlimit:10"></path><path d="M108.54,216.2s-2.44-9-3.1-10.62-3.68-1.77-4.46.39,1.88,10.74,2.71,12.23S107.76,218.35,108.54,216.2Z" style="fill:#d9d9d9;stroke:#263238;stroke-miterlimit:10"></path><path d="M103.37,222.39s-4.53-13.26-6.85-13.91-4.89,1.24-4.47,2.51,4.8,10.42,6,13.18,3.24,2.61,5,1.35S103.37,222.39,103.37,222.39Z" style="fill:#d9d9d9;stroke:#263238;stroke-miterlimit:10"></path><path d="M97.74,221.54s-7-7.72-8.67-8.88-4.13,2.26-3.51,4.18,5.38,6.56,8.75,9.34S100.63,225.46,97.74,221.54Z" style="fill:#d9d9d9;stroke:#263238;stroke-miterlimit:10"></path><path d="M80.89,229.77s6.57-5.38,6.88-7.45-2.13-5-3.83-3.76-8.44,6.77-9.47,8.58.73,4.2,2.43,4A15.13,15.13,0,0,0,80.89,229.77Z" style="fill:#d9d9d9;stroke:#263238;stroke-miterlimit:10"></path><path d="M77.93,215.14a4,4,0,0,0,4.17-2.06,1.82,1.82,0,0,0-.73-2.63c-2.91-1.8-13.1-5.61-14.24-6.08s-2.46.23-2.36,3.58,3.57,4.48,6.87,5.73A31.56,31.56,0,0,0,77.93,215.14Z" style="fill:#d9d9d9;stroke:#263238;stroke-miterlimit:10"></path><path d="M89.53,207.58s6.83-7.15,6.54-8.26a2.64,2.64,0,0,0-3.2-1.84c-1.45.54-11.1,10.3-10.06,12.43S87.56,210.62,89.53,207.58Z" style="fill:#d9d9d9;stroke:#263238;stroke-miterlimit:10"></path><path d="M93,206.59s9.72-2.18,10.93-4.12,1-4.7-.31-5-6,3.34-8.34,5.11S91.49,205.6,93,206.59Z" style="fill:#d9d9d9;stroke:#263238;stroke-miterlimit:10"></path><path d="M89.35,238s2.9-8.2,2.54-10.83-1.68-3-3.34-2S83.18,235.72,83.29,238,87.59,241.69,89.35,238Z" style="fill:#d9d9d9;stroke:#263238;stroke-miterlimit:10"></path><path d="M149.44,212.81s-2.43-9-3.1-10.62-3.67-1.77-4.45.39,1.87,10.74,2.71,12.23S148.67,215,149.44,212.81Z" style="fill:#d9d9d9;stroke:#263238;stroke-miterlimit:10"></path><path d="M144.27,219s-4.52-13.26-6.85-13.91-4.88,1.24-4.47,2.51,4.8,10.42,6.05,13.18,3.25,2.61,4.95,1.35S144.27,219,144.27,219Z" style="fill:#d9d9d9;stroke:#263238;stroke-miterlimit:10"></path><path d="M138.64,218.15s-7-7.72-8.67-8.88-4.13,2.26-3.5,4.17,5.37,6.57,8.74,9.35S141.53,222.07,138.64,218.15Z" style="fill:#d9d9d9;stroke:#263238;stroke-miterlimit:10"></path><path d="M121.79,226.38s6.57-5.38,6.88-7.45-2.12-5-3.83-3.76-8.44,6.76-9.47,8.58.73,4.2,2.43,4A15,15,0,0,0,121.79,226.38Z" style="fill:#d9d9d9;stroke:#263238;stroke-miterlimit:10"></path><path d="M118.83,211.75a4,4,0,0,0,4.17-2.07,1.8,1.8,0,0,0-.73-2.62c-2.91-1.81-13.1-5.61-14.24-6.08s-2.46.23-2.36,3.58,3.58,4.48,6.87,5.73A32.44,32.44,0,0,0,118.83,211.75Z" style="fill:#d9d9d9;stroke:#263238;stroke-miterlimit:10"></path><path d="M130.43,204.19s6.84-7.16,6.55-8.26a2.67,2.67,0,0,0-3.21-1.85c-1.45.54-11.1,10.31-10.05,12.44S128.46,207.23,130.43,204.19Z" style="fill:#d9d9d9;stroke:#263238;stroke-miterlimit:10"></path><path d="M133.91,203.2s9.73-2.18,10.93-4.12,1-4.7-.3-5.05-6,3.35-8.35,5.12S132.4,202.21,133.91,203.2Z" style="fill:#d9d9d9;stroke:#263238;stroke-miterlimit:10"></path><path d="M130.25,234.62s2.9-8.2,2.54-10.83-1.67-3-3.33-2-5.38,10.56-5.27,12.85S128.49,238.3,130.25,234.62Z" style="fill:#d9d9d9;stroke:#263238;stroke-miterlimit:10"></path><path d="M89,229.61s-.34,9.32-.18,11.06,3,2.77,4.37.94,1.39-10.81,1-12.48S90.36,227.78,89,229.61Z" style="fill:#d9d9d9;stroke:#263238;stroke-miterlimit:10"></path><path d="M95.75,225.22s.4,14,2.43,15.32,5,.26,5-1.08-1.5-11.37-1.87-14.38S99,221.63,97,222.32,95.75,225.22,95.75,225.22Z" style="fill:#d9d9d9;stroke:#263238;stroke-miterlimit:10"></path><path d="M100.88,227.7s4.43,9.45,5.65,11,4.62-.93,4.59-2.94-3.2-7.87-5.59-11.52S99.28,223.1,100.88,227.7Z" style="fill:#d9d9d9;stroke:#263238;stroke-miterlimit:10"></path><path d="M119.41,224.82s-7.86,3.2-8.78,5.09.55,5.42,2.55,4.72,10.06-4,11.59-5.39.54-4.23-1.14-4.54A15.23,15.23,0,0,0,119.41,224.82Z" style="fill:#d9d9d9;stroke:#263238;stroke-miterlimit:10"></path><path d="M117.91,239.68a4,4,0,0,0-4.6.73,1.82,1.82,0,0,0-.08,2.73c2.25,2.58,10.86,9.23,11.81,10s2.42.51,3.31-2.72-2.09-5.34-4.87-7.51A32.25,32.25,0,0,0,117.91,239.68Z" style="fill:#d9d9d9;stroke:#263238;stroke-miterlimit:10"></path><path d="M104.59,243.46s-8.65,4.82-8.7,6a2.65,2.65,0,0,0,2.52,2.71c1.54-.09,13.65-6.56,13.28-8.9S107.37,241.15,104.59,243.46Z" style="fill:#d9d9d9;stroke:#263238;stroke-miterlimit:10"></path><path d="M101,243.38s-9.93-.8-11.65.7S87,248.27,88.11,249s6.69-1.43,9.49-2.41S102.13,244.77,101,243.38Z" style="fill:#d9d9d9;stroke:#263238;stroke-miterlimit:10"></path><path d="M113.77,214.45s-5.2,7-5.63,9.59.72,3.34,2.59,2.92,8.25-8.5,8.83-10.72S116.54,211.46,113.77,214.45Z" style="fill:#d9d9d9;stroke:#263238;stroke-miterlimit:10"></path><path d="M92.34,202.69s-3.39,8.69-3.82,10.39,1.91,3.6,3.82,2.33,4.87-9.75,5.08-11.44S94.24,201.42,92.34,202.69Z" style="fill:#d9d9d9;stroke:#263238;stroke-miterlimit:10"></path><path d="M100.18,200.79s-4.24,13.35-2.76,15.26,4.67,1.9,5.09.63,2.33-11.23,3-14.2-1.06-4-3.18-4S100.18,200.79,100.18,200.79Z" style="fill:#d9d9d9;stroke:#263238;stroke-miterlimit:10"></path><path d="M104.21,204.81s1.05,10.39,1.69,12.3,4.66.63,5.3-1.28-.43-8.47-1.48-12.71S104.21,199.94,104.21,204.81Z" style="fill:#d9d9d9;stroke:#263238;stroke-miterlimit:10"></path><path d="M122.64,208.2s-8.47.43-10,1.91-1.27,5.3.85,5.3,10.81-.42,12.72-1.27,1.9-3.82.42-4.66A15.1,15.1,0,0,0,122.64,208.2Z" style="fill:#d9d9d9;stroke:#263238;stroke-miterlimit:10"></path><path d="M137.69,219.86s-6.36.64-9.54,1.27-4.45.64-3.6,3,1.48,3.18,3.82,3,11.23-1.49,12.5-2.76A2.85,2.85,0,0,0,137.69,219.86Z" style="fill:#d9d9d9;stroke:#263238;stroke-miterlimit:10"></path><path d="M137.69,229.82s-13.14,4-15,5.51-1.06,3.61,1.49,4.24,17.59-6.78,20.55-7.42,4.24-2.12,2.12-3.6S141.29,228.34,137.69,229.82Z" style="fill:#d9d9d9;stroke:#263238;stroke-miterlimit:10"></path><path d="M116.33,221.73a4,4,0,0,0-4.58-.81,1.82,1.82,0,0,0-1,2.54c1.28,3.18,7.21,12.3,7.85,13.36s2.12,1.27,4-1.49-.21-5.72-2.12-8.69A31.63,31.63,0,0,0,116.33,221.73Z" style="fill:#d9d9d9;stroke:#263238;stroke-miterlimit:10"></path><path d="M102.09,232.37s1.48,12.5,2.54,14.83,6.36,3.39,7,1.06-2.54-13.35-3-15.26S102.72,229.61,102.09,232.37Z" style="fill:#d9d9d9;stroke:#263238;stroke-miterlimit:10"></path><path d="M157,241.27s-17.38-2.76-18.65-.85-1.91,4.24-.85,4.66,16.53,1.27,18.65.85S159.31,241.9,157,241.27Z" style="fill:#d9d9d9;stroke:#263238;stroke-miterlimit:10"></path><path d="M102.51,220.92s-9.75,1.7-10.17,2.76a2.65,2.65,0,0,0,1.48,3.39c1.48.42,15.05-1.7,15.47-4S105.9,219.65,102.51,220.92Z" style="fill:#d9d9d9;stroke:#263238;stroke-miterlimit:10"></path><path d="M99.12,219.65s-9.11-4-11.23-3.18-3.61,3.18-2.76,4.24,6.78.85,9.75.85S99.75,221.34,99.12,219.65Z" style="fill:#d9d9d9;stroke:#263238;stroke-miterlimit:10"></path><path d="M120.74,196.55s-7.21,4.87-8.48,7.2-.43,3.4,1.48,3.61,10.6-5.3,11.87-7.21S124.34,194.64,120.74,196.55Z" style="fill:#d9d9d9;stroke:#263238;stroke-miterlimit:10"></path><path d="M178.19,248.81s-48.29-47.21-52.21-50-3.75-4.12-2.12-5.57,3.77-1,5.31.37,46.77,42.41,50,45.5S182.13,248.14,178.19,248.81Z" style="fill:#FFC100;stroke:#263238;stroke-miterlimit:10"></path><path d="M182.91,245s-32.55-63.31-35-67-3.65-6.95-5.45-5.84-2.25,5.8-2.25,5.8,31.05,55.09,34.1,60.41,3.81,9,5.87,8.84S183.16,247.63,182.91,245Z" style="fill:#FFC100;stroke:#263238;stroke-miterlimit:10"></path><path d="M186.53,240.2s-31.74-54.74-35.81-61.26-3.38-10.29-1.15-10.11,11.13,16.06,12.91,19.23,29.8,48.66,29.8,48.66S190.55,241.85,186.53,240.2Z" style="fill:#FFC100;stroke:#263238;stroke-miterlimit:10"></path><path d="M180.19,223.49s-43.35-41.54-45.31-44.2-.57-5.91.38-6.16S177.5,214.58,181,218.61,183.61,225.22,180.19,223.49Z" style="fill:#FFC100;stroke:#263238;stroke-miterlimit:10"></path><path d="M177.2,219l-36.39-35.32s-3.22-6.71-1.58-5.38,35,34.35,35,34.35Z" style="fill:#fff;opacity:0.58"></path><path d="M165,226.07s-36.55-33.81-35.51-36,3.95-4.08,5.23-2.79,36.78,38.16,38.82,41.43S174.49,234.41,165,226.07Z" style="fill:#FFC100;stroke:#263238;stroke-miterlimit:10"></path><path d="M165.59,236.25s-3.86,2.12-5.22.23-21.26-46.9-22.93-54.61-.73-8,1-7.1,8.72,20.66,14.66,31S165.52,233.09,165.59,236.25Z" style="fill:#FFC100;stroke:#263238;stroke-miterlimit:10"></path><path d="M161.11,235.29s-17.69-41.93-18.81-43.62-3.36-10.16-3.9-11.65.25-2.66.83-1.68,22.63,48.58,23.12,51.36,2.05,4.74.84,5.64A1.52,1.52,0,0,1,161.11,235.29Z" style="fill:#fff;opacity:0.58"></path><path d="M156.68,165.53s33.52,59.63,36.23,64.27.57,6.76-3.18,3.49-41.21-60.53-40.16-64.46S152.34,160.63,156.68,165.53Z" style="fill:#FFC100;stroke:#263238;stroke-miterlimit:10"></path><path d="M193.21,232.8a6,6,0,0,1-3.12-1.87c-1.84-1.77-35.88-55.15-37.28-58.23s0-6.69,1.49-6.34,3.21,2.56,3.21,2.56l33.91,60.5S193.75,232.17,193.21,232.8Z" style="fill:#fff;opacity:0.58"></path><path d="M144.89,177.24s29.23,60.88,30.58,65.48,2.7,4.87,4.6,3.79,2.16-3.25,1.35-5.14-25.16-57.91-27.06-62S146.79,173.72,144.89,177.24Z" style="fill:#FFC100;stroke:#263238;stroke-miterlimit:10"></path><path d="M150,174s49.52,51.14,52.23,54.66,5.41,5.68,3.78,7-6.22.27-6.22.27-42.21-47.09-46.27-51.69-7.31-6.49-6.49-8.38S147.6,172.91,150,174Z" style="fill:#FFC100;stroke:#263238;stroke-miterlimit:10"></path><path d="M155.72,172.1s41.67,47.62,46.54,53.57,8.66,6.5,9.2,4.33-11.64-15.69-14.07-18.4-36.53-43.83-36.53-43.83S155.44,167.77,155.72,172.1Z" style="fill:#FFC100;stroke:#263238;stroke-miterlimit:10"></path><path d="M169.52,183.46s25.43,54.39,27.32,57.1,5.42,2.43,6,1.62-25.71-53.31-28.41-57.91S169,179.67,169.52,183.46Z" style="fill:#FFC100;stroke:#263238;stroke-miterlimit:10"></path><path d="M172.77,187.73l21.78,45.8s5.32,5.2,4.58,3.22-21.29-44.2-21.29-44.2Z" style="fill:#fff;opacity:0.58"></path><path d="M162.21,197s20.29,45.46,22.73,45.19,5.14-2.43,4.33-4.06S164.92,191,162.48,188.06,157.34,185.36,162.21,197Z" style="fill:#FFC100;stroke:#263238;stroke-miterlimit:10"></path><path d="M152.74,193.2s-3.25,3-1.9,4.87,37.62,35.18,44.38,39.24,7.31,3.25,7,1.35-16.78-14.88-24.63-23.81S155.72,194.29,152.74,193.2Z" style="fill:#FFC100;stroke:#263238;stroke-miterlimit:10"></path><path d="M152.22,197.75s34,30.21,35.28,31.82S196,236,197.28,237s2.59.62,1.85-.24-38.74-37-41.22-38.38-3.84-3.47-5.07-2.6A1.5,1.5,0,0,0,152.22,197.75Z" style="fill:#fff;opacity:0.58"></path><path d="M216.87,224.32s-45.73-50.87-49.25-54.93-6.22-2.7-4.33,1.9S207.4,229.73,211.46,230,220.12,230,216.87,224.32Z" style="fill:#FFC100;stroke:#263238;stroke-miterlimit:10"></path><path d="M164.87,168.15a5.91,5.91,0,0,0,.77,3.55c1.08,2.31,40.73,51.68,43.2,54s6.32,2.16,6.48.62-1.39-3.86-1.39-3.86l-46.44-51.52S165.64,167.84,164.87,168.15Z" style="fill:#fff;opacity:0.58"></path><path d="M129.21,79.89S105.13,87.2,95.66,94.51s-14.62,21.91-16.51,30-7.58,24.9,5.14,42.21,23,21.92,36,21.65,29.22-5.68,39.78-14.88,10.28-36,10.55-39.78,7.3-12.72,1.35-26-9.47-16.5-16.77-22.18S137.6,78.54,129.21,79.89Z" style="opacity:0.39"></path><path d="M128.93,78.2s-24.09,7.31-33.56,14.62-14.61,21.91-16.5,30-7.58,24.9,5.14,42.21,23,21.92,36,21.65,29.22-5.68,39.77-14.88,10.29-36,10.56-39.78,7.3-12.72,1.35-26-9.47-16.5-16.78-22.18S137.32,76.85,128.93,78.2Z" style="fill:#fff;stroke:#263238;stroke-miterlimit:10"></path><path d="M130.12,109.63a20.6,20.6,0,0,0-14.33,11c-6.5,12.24-.33,29.92,12.87,35,9.2,3.52,26-2.16,29-18.4s-7.85-24.08-15.15-26.79A24.54,24.54,0,0,0,130.12,109.63Z" style="fill:#FFC100;stroke:#263238;stroke-miterlimit:10"></path><ellipse cx="139.28" cy="131.75" rx="12.2" ry="11.58" style="fill:#fff;opacity:0.58"></ellipse><path d="M123.1,141.85s1.11,3,2,2.87,1.44-1.77.67-2.21A9.93,9.93,0,0,0,123.1,141.85Z" style="fill:#fff"></path><path d="M140.49,153.28s1.11,3,2,2.88,1.43-1.77.66-2.21A9.68,9.68,0,0,0,140.49,153.28Z" style="fill:#fff"></path><path d="M127.3,136s-1.66,1.54-.66,2.54,1.66.11,1.66-1.11S127.86,135.32,127.3,136Z" style="fill:#fff"></path><path d="M135.91,142.31s-2.1.23-1.43,1.44,3.31,1.22,3.31.55A2.81,2.81,0,0,0,135.91,142.31Z" style="fill:#fff"></path><path d="M142.56,124.93s1.55,2.87,2.22,1.77a1.93,1.93,0,0,0-.45-2.66C143.67,123.71,142.79,123.6,142.56,124.93Z" style="fill:#fff"></path><path d="M144.11,117.41s-1.77.88-1.1,1.55,2.1,1.1,2.43.55S144.11,117.41,144.11,117.41Z" style="fill:#fff"></path><path d="M152.18,119.73a2.16,2.16,0,0,0-.44,3.32c.56.55,2-.45,1.77-1.88S153.07,119.18,152.18,119.73Z" style="fill:#fff"></path><path d="M121.49,124.07c-.44,0-2.88.44-2.76,1.66s2,.66,3.09-.33S121.49,124.07,121.49,124.07Z" style="fill:#fff"></path><path d="M154.57,136.94s-3.1-1.88-3.21-.44.33,1.55,1.77,1.55S154.57,136.94,154.57,136.94Z" style="fill:#fff"></path><path d="M134.49,112.43s0,1.77,1.11,2.1,1.21-.66.55-1.88S134.6,111,134.49,112.43Z" style="fill:#fff"></path><path d="M125.42,118s.78,2.43,1.66,2.21.44-2.32-.55-3.2S125.42,118,125.42,118Z" style="fill:#fff"></path><path d="M122.33,139.86s-2.77-1.88-3.43-1,.88,1.77,1.88,1.88S123.1,141,122.33,139.86Z" style="fill:#fff"></path><path d="M132.5,130.22s1.1-2.21.33-3-1.44.11-1.44,1S131.61,130.77,132.5,130.22Z" style="fill:#fff"></path><path d="M145.79,135.91s-2.32-2.66-2.76-1.44.55,1.66,1.44,1.88S146.24,137,145.79,135.91Z" style="fill:#fff"></path><path d="M79.57,103.39s2.19,5.18,3.92,5.65,5.49-3.29,6.28-5.17a6,6,0,0,0-.16-4.09l-2.83-4.39Z" style="fill:#FFC100;stroke:#263238;stroke-miterlimit:10"></path><path d="M84.59,95.23a9.43,9.43,0,0,0-5,4.4c-1.42,3.14-.79,3.92,1.56,3.14s5.18-4.24,5.5-5.65S86.31,94,84.59,95.23Z" style="fill:#FFC100;stroke:#263238;stroke-miterlimit:10"></path><path d="M59.16,133.37s3.93,9.42,4.71,9.57,5-1.41,4.87-2.19-3.46-9.11-4.55-9.89S59.16,131.64,59.16,133.37Z" style="fill:#FFC100;stroke:#263238;stroke-miterlimit:10"></path><path d="M62.93,127.72s4.87,11.93,6,11.77,4.4-2,4.24-2.82S68.58,126.78,67.8,126,63.87,126.94,62.93,127.72Z" style="fill:#FFC100;stroke:#263238;stroke-miterlimit:10"></path><path d="M69.68,128.5s3.61,9.58,4.24,9.73,3.92-1.56,4.23-2.66-3-7.85-3.61-8.63S70.46,127.56,69.68,128.5Z" style="fill:#FFC100;stroke:#263238;stroke-miterlimit:10"></path><path d="M96.26,50.24s.16,4.69,0,6.63A3.34,3.34,0,0,0,99,60.75c1.94.33,5.33-.32,6.14-1.45s.81-6.79.65-7.6-.81-2.59-3.72-3.08S96.9,48,96.26,50.24Z" style="fill:#FFC100;stroke:#263238;stroke-miterlimit:10"></path><path d="M96.26,50.24s.81,2.1,4.2,2.1,4.37-1.13,3.88-1.45" style="fill:#FFC100;stroke:#263238;stroke-miterlimit:10"></path><path d="M84.29,61.4s-3.72,6.79-4.36,9.86,2.91,3.08,4.85,2.59S90,67.71,90,66.41,87.53,60.11,84.29,61.4ZM83.16,70c-1.62-.16-1.78-2.75.16-3.88A14.38,14.38,0,0,1,87,67.87C87.85,68.68,84.78,70.13,83.16,70Z" style="fill:#FFC100;stroke:#263238;stroke-miterlimit:10"></path><path d="M87.33,68.31a4.32,4.32,0,0,0,2.14-3" style="fill:#FFC100;stroke:#263238;stroke-miterlimit:10"></path><path d="M168.6,137.22s-2.78,7.64-3.47,9.2,1.56,5.21,4.34,6.08,3.82-1.56,4.34-2.95,3.3-8.68,2.78-9.9S172.42,135.66,168.6,137.22Z" style="fill:#FFC100;stroke:#263238;stroke-miterlimit:10"></path><path d="M165.67,148.8s-.23-2,2.35-2.22,4.92,2.22,4.69,3.28-.24,1.41-2,1.52" style="fill:#FFC100;stroke:#263238;stroke-miterlimit:10"></path><path d="M42.15,117s7-4.1,8.55-4.86,2.13-5,.54-7.45-3.93-1.23-5.22-.5-8.08,4.57-8.46,5.84S38.22,115.75,42.15,117Z" style="fill:#FFC100;stroke:#263238;stroke-miterlimit:10"></path><path d="M51.81,110s-1.1,1.68-3.23.21-2.37-4.86-1.51-5.52,1.08-.93,2.5.1" style="fill:#FFC100;stroke:#263238;stroke-miterlimit:10"></path><path d="M109.16,132a8.12,8.12,0,0,0-4.85,0c-2.53.85-4,1.27-4,2.53s1.06,5.69,1.9,6.11,3.37,0,5.06-.63,2.95-1.05,2.95-1.68S109.16,132,109.16,132Z" style="fill:#FFC100;stroke:#263238;stroke-miterlimit:10"></path><path d="M102.2,140.63s4.64-2.74,8-2.31" style="fill:#FFC100;stroke:#263238;stroke-miterlimit:10"></path><path d="M129.36,77.12a29.33,29.33,0,0,0,1.91,5.15c1.34,2.77,4.58,3.63,6.21,3s2.67-3.24,2.38-4.67-1.33-5.16-1.33-5.16.57,3.63-.67,5.06-3.25,1.53-5.25.57S129.36,77.12,129.36,77.12Z" style="fill:#FFC100;stroke:#263238;stroke-miterlimit:10"></path><path d="M132.92,73.42s-3.45.31-3.61,2.2a5.81,5.81,0,0,0,4.24,5.65c3,.78,4.71-.32,5-3.14s0-4.08-1.41-4.71S132.92,73.42,132.92,73.42Z" style="fill:#fff;stroke:#263238;stroke-miterlimit:10"></path><path d="M130.32,79.5a4.46,4.46,0,0,1,3.43-2.38,7.87,7.87,0,0,1,4.82,1s.36-3-.52-3.88a5.55,5.55,0,0,0-3.53-1.14,15.81,15.81,0,0,0-3.63.86c-1.14.47-1.62.15-1.58,1.65A15.11,15.11,0,0,0,130.32,79.5Z" style="fill:#FFC100;stroke:#263238;stroke-miterlimit:10"></path></g></svg>
